<?xml version="1.0" encoding="UTF-8"?>
<svg id="Capa_1" data-name="Capa 1" xmlns="http://www.w3.org/2000/svg" xmlns:xlink="http://www.w3.org/1999/xlink" viewBox="0 0 501.96 517.93">
  <defs>
    <style>
      .cls-1 {
        fill: url(#Degradado_sin_nombre_6);
      }
    </style>
    <linearGradient id="Degradado_sin_nombre_6" data-name="Degradado sin nombre 6" x1="7.05" y1="103.47" x2="476.62" y2="374.58" gradientUnits="userSpaceOnUse">
      <stop offset="0" stop-color="#efc981"/>
      <stop offset=".19" stop-color="#f2d78f"/>
      <stop offset=".41" stop-color="#f5c58e"/>
      <stop offset=".73" stop-color="#d5a702"/>
      <stop offset=".88" stop-color="#e6bc5d"/>
      <stop offset=".95" stop-color="#eec687"/>
    </linearGradient>
  </defs>
  <path class="cls-1" d="M496.31,195.48c-.43,11.44-21.07,47.11-30.48,54.18-4.95,3.72-5.44,3.86-9.4,7.7-1.01.98-7.66,1.59-8.66,3.06-.69,1.01-.08,3.13-.98,4.53-.59.91-14.18,11.53-16.52,14.06-2.07,2.24-2.01,5.34-3.29,6.72-.59.64-8.26,5.26-9.87,6.13.13,1.96,1.97,4.22,1.19,6.5-.84,2.44-8.23,3.19-7.7,12.33.66,11.43,9.05,27.63,10.34,40.47.53,5.3,1.16,21.97.09,26.45-.14.6-7.34,8.71-8.52,9.43-3.84,2.32-8.79,2.35-12.45,4.36-4.88,2.68-6.73,8.76-10.62,12.14-5.42,4.7-13.22,2.76-11.93,10.85.53,3.3,4.52,11.24,5.22,14.79,1.02,5.17,1.18,8.88-5.21,9.1,0-.41,0-.81,0-1.22.05-3.13.27-6.7,0-9.76-.62-6.98-3.44-12.78-2.64-19.52.31-.18,1.6.24,2.26-.34.77-.69.2-1.82.38-2.1.28-.44.97-.78,1.32-1.22,4.85-.27,6.56-3.23,9.24-6.1,4.93-5.28,2.75-5.49,10.56-8.54,1.1-.43,1.98-.96,2.64-1.22,1.1-.43,3.09-.26,5.28-1.22,2.72-1.2,2.3-1.35,3.96-2.44.52-.34.86-.84,1.32-1.22,3.23-2.67,5.98-3.13,6.67-7.87,1.77-12.16-.28-22.45-4.03-33.62-2.41-7.18-2.72-9.79-3.96-17.08-.13-.77.12-1.66,0-2.44-.36-2.28-1.1-4.63-1.32-6.1-.24-1.63-.95-3.97-1.32-6.1-.2-1.13.13-2.48,0-3.66-.13-1.18.23-2.6,0-3.66,3.76,1.01,3-5.65,5.28-8.54.23-.06,2.55-1.68,3.96-2.44-.1-1.53-.35-3.82.02-5.16s1.83-1.44,2.62-2.16c.85-.77,1.46-1.16,1.32-2.44,1.35-1.14,1.85-.82,2.64-1.22,2.3-1.16,4.67-.14,3.96-4.88.18.09,1,.06,1.32,0,2.17-.38,2.81-2.48,3.96-3.66,15.43-15.86,35.32-26.74,46.2-45.14,1.32-2.23,1.47-6.95,3.71-9.39l13.45-22.33ZM436.92,186.94c6.01-.71,6.85,6.21,12.52,6.21,3.01,0,4.8-2,6.94-2.27,9.73-1.26,19.96-2.05,29.75-4.2,2.16-.47,3.98-1.44,4.91-3.39-9.19-.85-26.52,2.44-34.64,5.75-9.24,3.77-9.83-7.42-18.16-6.97-.16.79-1.53-.75-1.32,4.88ZM411.84,158.88c9.31,1.59,12.18,5.25,15.84,12.2,1.31.35,3.62-.62,5.32.57.85.6,2.49,5.73,5.24,6.75.13-.55,1.21-1.39,1.4-3.04.75-6.61-8.62-9.1-11.96-12.25-1.31-1.24-.98-3.59-2.15-4.34-3.19-2.07-7.06.75-10.91-4.54-1.75-2.41-.56-7.21-6.74-6.32,1.14,2.48,3.32,8.42,3.96,10.98ZM363.64,451.67c1.6-2.96,13.9-4.43,14.99-9.36.21-.93-1.11-1.5-1.11-1.6-2.45,1.56-3.4,3.02-6.6,3.66-1.17.23-2.79-.23-3.96,0,.83,3.51-3.77,3.33-6.6,3.66-.32.5-1.25.96-1.32,1.22-1.22,4.28-.02,7.82-2.64,13.42-1.13,2.42-.4,1.71-2.64,3.66v1.22c.09.39-.12.85,0,1.22.19.57,1.24,1.25,1.32,2.44,11.6-2.04,5.78-14.4,8.56-19.54ZM364.68,42.02c-6.19-1.24-10.41.73-14.88.95v2.44c.43.05.88-.02,1.32,0,2.18.12,4.41-.06,6.6,0,1.75.05,3.53-.09,5.28,0,1.9.1,3.65.19,5.28,1.22-.11-.81,3.19-3.25-3.6-4.61ZM496.31,183.28c-1.57,3.9.13,7.36,0,10.98,10.8-1.69,2.81-5.03,2.65-5.69-.78-3.35,1.84-7.92-4.52-7.81-1.25.02-.62,2.38-.77,2.53h2.63ZM319.44,45.42c3.55.32,7.31,1.06,10.56,1.22,1.95-1.75-7.35-4.77-8.74-4.92-1.92-.21-2.9,1.24-3.14,1.26l1.32,2.44ZM21.12,83.24c2.67.1,4.07-1.24,3.96-3.66-1.85,1.3-1.97-1.13-3.96,3.66ZM225.72,34.44v1.22l3.96-1.22c-3.54-1.26-3.73.03-3.96,0ZM223.08,34.44c.13-2.07.47-2.85-1.97-2.43l-.67,1.21c.19.01,1.36,1.05,2.64,1.22ZM370.92,53.96c.02-.13,2.16-1.62,1.31-2.43-.29-.28-2.27.27-2.63,0l1.32,2.44ZM0,160.1c2.81.29,2.96.15,2.64-2.44-1.44.79-2.71-1.79-2.64,2.44ZM116.16,110.07c-.26.2-4.57-.11-6.64.58-13.61,4.54-4.01,13.16-11.34,17.6-6.22,3.78-9.04-2.96-15.02-3.53.61,6.1.16,15.94,1.28,21.4.61,2.98,3.22,2.28,3.91,3.83.21.47.25,6.22-2.52,4.04-4.1-3.21-4.72-24.4-5.31-30.49-5.69-.9-7.19-2.89-7.92,3.65l5.29.63c.47,2.4-2.81,2.22-3.64,3.41-.59.84-.38,6.35-3.02,2.59-1.23-1.75.04-5.94-3.23-5.4-3.3,10.81-11.42,7.25-17.82,10.38-2.25,1.1-2.85,4.86-4.82,5.4-3.18.87-7.31-6.1-16.05-2.76-1.5.58-1.41,2.58-2.51,2.8-3.9.8-13.12.9-14.68-3.28-1.75-4.67,2.45-4.02,2.47-4.66.07-2.09-4.54-7.53-3.97-9.65.48-1.81,3.9-1.37,4.85-2.25,1.07-.99.08-3.4,3.37-4.92,3.48-1.61,8.15,2.24,13.58-.77,3.58-1.98,5.59-8.26-.74-8.61-.08,2.03.07,4.08,0,6.11-5.71,0-11.46,0-17.17,0,1.02,3.88-5.12,3.63-3.96,0h-5.28c.07.8-.12,1.67,0,2.44.48.27,1.86.04,2.62.62,3.32,2.56.18,6.84.28,9.75.14,3.75,3.13,9.3-.26,12.81.09.76.17,3.38,0,3.66-1.15,3.4,3.26,2.74,6.6,2.44.29-.03,1.1-1.13,2.15-1.2,5.04-.36,4.8,1.94,8.1,3.33,3.67,1.54,7.84.08,8.25,5.79-3.33,2.47-2.34-1.97-4.84-2.81-1.57-.53-3.63-.11-5.67-.9-3.17-1.23-1.71-2.75-7.99-2.99-9.55-.36-6.09,2.43-11.88,7.32-.14.4.18,1.12,0,1.22.32,2.59.17,2.73-2.64,2.44.08,4.84,3.25,5.91,3.91,9.2.57,2.84-.88,8.51.62,10.41,2.47,3.12,6.46-2.6,8.67,6.01,5.51-1.1,8.74-2.32,9.26-7.91.09-2.29-10.19.94-10.57.59-5.06-4.63,13.15-2.69,14.97-2.2,1.7.45,1.97,2.12,2.18,2.21,3.19-.18,8.52.66,11.07-.15,3.09-.98.76-4.77,3.44-4.73l-1.31,7.3,17.16-2.44c.87.89-2.98,5.38,5.28,6.11,11.21.99,6.55-4.71,7.99-6.03.28-.26,4.64-.02,6.58-.62,3.76-1.17,5.64-3.82,10.51-5.55,4.51-1.6,2.58-3.36,9.22,0-.44-9.11,7.64-6.31,9.08-7.5.76-.63-.43-3.48,2.39-4.49,7.68-2.74,10.61-.74,16.97-1.33,3.85-.36,11.84-2.1,16.81-2.83,4.63-.68,6.37-1.25,7.57-4.59,2.32-6.44.32-13.09,2.63-19.51l-7.95.64.04-6.74c-5.51,1.11-10.43-1.78-14.08-5.29-7.16-6.88-8.93-8.24-17.59-14.24-3.8,1.35,4.53,1.22,1.32,3.65ZM33.01,144.87c2.55-5.01,9.2,3.11,7.91,4.25l-7.91-4.25ZM44.93,157.01c1.79,1.22,4.85-.62,3.91,3.08-1.55-.26-5.04.86-5.32-.85-.21-1.29.95-3.15-1.26-2.79l-1.32,4.87c-.22-1.91-.71-10.11,2.6-7.3.23.19.03,2.07,1.39,3ZM85.8,156.44v1.22h-35.64v-1.22h35.64ZM42.24,172.29c-2.58,2.53-9.03-10.93-2.64-9.76-1.88,2.66,3.37,9.04,2.64,9.76ZM350.67,317.29c-1.66-2.31-5.54-4.31-5.95-5.48-1-2.84.31-4.89-1.52-8.97-.25,1.21-1.27,9.66-1.14,10.15.55,2.07,4.55,3.2,6.24,5.26,1,1.22,5.98,12.16,5.45,12.64-7.73-.16-5.49-5.32-13.52-4.57-7.21.67-5.78,5.36-8.91,9.45,1.29,4.61-1.68,10.07-1.45,14.05.19,3.2,2.78,3.87,2.76,6.69-5,.82-6.46-5.74-8.24-6.5-3.47-1.47-4.23,1.11-7,1.56-10.51,1.72-6.76-3.54-8.68-4.66-1.17-.69-4.08.28-5.69-.2-1.14-.34-1.94-1.15-2.06-1.17-4.59-.9-8.35-2.6-13.19,0-.05-5.39-1.7-10.59-2.65-15.86h-2.64c1.66,6.36,3.6,11.8,1.32,18.3,4.05.96,9.05-1.52,13.2-1.21v12.19c-2.22.35-12.7-.48-13.2,0-.85.8-1.49,19.95-1.15,22.46.96,7.12,4.69,4.99,6.43,10.48-8.2,2.04-17.28,2.25-25.8,1.29-4.04-.46-5.58-3.13-9.25-3.67-7-1.03-17.33,2.73-25.07,1.23-5.05-2.57-10.13-1.9-15.11-3.72-.68-.25-2.47.68-2.72-.68-.57-2.24,1.36-3.73,1.4-4.2.07-.8-.11-1.66,0-2.44.06-.4-.04-.82,0-1.22-6.59-.06-3.17,16.43-2.06,19.59,1.27,3.64,4.25,4.55,6.02,10.91,3.94,1.14,2.4,6.94,6.6,6.1-1.67-3.98-3.15-11.33-5.52-15.07-1.57-2.47-6.53-1.72-2.25-7.37,4.52-5.99,5.58-.84,6-.73,6.93,1.68,21.95-1.04,30.22-.06,3.98.47,5.26,2.87,8.13,3.47,5.23,1.09,11.97-.48,17.55,1.48.57,2.01-2.29.55-2.66,1.99-.95,3.64,1.06,22.55-.05,23.55-.3.27-6.52.17-7.84,2.51.32,5.04-2.24,14.15-2.14,19.93.1,5.41,5.15,22.99-1.37,25.01-10.16,3.15-23.63-4.91-26.48-14.17-1.28-4.17.06-13.62-6.97-14.91.04,1.22-.04,2.44,0,3.66,3.68,5.38,3.84,12.99,6.92,18.61,1.92,3.5,5.49,5.29,7.11,7.45,1.04,1.4,10.83,23.33,11.05,24.66.56,3.43-1.93,6.73-1.15,9.46.47,1.63,2.42,1.89,2.47,2.03,1.66-1.4,1.24-3.09,1.32-4.88.13-2.81.6-9.26-.2-11.41-.66-1.77-8.55-5.49-6.29-12.21,1.46-4.35,17.66,1.33,21.01-8.11.3-.83-.48-2.65.07-3.92,1.65-3.86,6.43-2.78,9.17-4.05.82-.38,3.65-4.75,6.7-5.94,5.63-2.21,18.31.07,19.51-.92.37-.31.48-2.75,1.5-4.03,6.95-8.76,16.5-16.62,26.29-20.88,1.34-.58,2.26-2.37,3.71-2.79.76-.22,10.45,1.99,10.84,2.36.65.61,1.15,14.61,1.41,17.01.22,2-.22,4.1,0,6.1.03.27,1.04,3.71,1.32,4.88.7,2.91-1.22,3.74,3.96,4.88,2.62-5.6,1.42-9.14,2.64-13.42l-5.34-2.03c1.57-3.91-1.65-10.26-1.3-13.04.1-.79,2.21-.82,2.62-1.74,1.26-2.79.29-5.69,1.29-8.19,1.71-4.26,7.29-12.28,7.94-15.94,1.22-6.82-2.63-17.2-2.57-23.73-6.77-1.25-17.68-1.93-17.17-9.75,5.81.56,13.66-5.02,18.09-5.74,1.64-.27,3,.71,4.36.85-.71-3.46-2.66-1.64-2.77-5.39-.23-8.24,4.93-6.8,5.4-8.71.29-1.16-2.27-2.99-2.59-4.87-.38-2.23.32-4.69-.04-6.65-.88-.14-1.72-.96-2.63-1.23-1.17,1.5,5.86,14-2.65,12.21,0,2.43.13,4.9,0,7.32-.08,1.56.4,3.16-.19,4.68-1.55.87-3.42.89-5.09,1.42-3.45,1.08-9.64,2.02-12.39,3.8-2.85,1.84-2.93,5.3-3.69,5.75-1.41.84-6.08-.12-8.23,1.33-1.13.76-.43,2.75-1.1,3.39-1.11,1.07-6.83,1.98-8.81,3.52-2.14,1.68-2.08,4.17-3.38,5.41-4.29,4.1-20.55-4.12-27.07-3.09-8.94-6.8-6.21-17.58-6.63-27.44,14.8,1.22,15.3.18,14.54-13.41l1.31,3.67c7.38-3.29,5.73,1.02,9.09,1.9,6.46,1.7,14.48.08,19.94,4.8,3.9,3.36,1.66,9.01,13.21,6.71-.33-1.92.45-10.6,0-10.99-.95-.84-8.87,2.58-10.33-4.57-.59-2.9,2.63-18.73,4.71-19.82,6.59-3.44,8.41,1.82,13.25,3.36,1.97.63,4.6-.04,5.57.29,6.46,2.22,9.38,4.71,10.56,10.98,6.45,1.01-1.86-5.51,0-7.31,2.98-2.89,11.54,11.47,11.7,13.02.24,2.39-3.85,3.27-3.58,5.66.07.65,3.12,8.98,3.67,10.13,1,2.06,3.85,3.09,4.01,3.77.46,1.94.39,7.39-.22,9.28-1.21,3.74-5.84,2.87-6.36,3.3-.3.25,4.28,7.23-1.3,6.09-1.31-4.58,2.13-10.64.78-14.67-1.62-4.84-4.86-3.23-8.7-3.63.11.56-.26,2.28,0,2.44,2.85,1.76,9.03-2.62,5.29,9.76.43.72-.49,3.75-.02,5.26.42,1.37,2.59.73,2.66.84.31.48-.54,2.95.12,3.47.57.44,5.83.46,6.34.06.25-.19.76-3.98,1.41-5.38.71-1.52,3.97-6.31,4.01-6.69.05-.55-1.79-9.51-2.2-10.78-1.2-3.73-7.33-9.55-5.13-13.6,2.26-4.16,12.38-1.94,17.12-2.56,2.62-.34,17.31-4.24,17.92-3.56.79,7.05.71,14.83,0,21.96-.47,4.77-.77,7.53-2.64,12.2,3.23-2.67,5.98-3.13,6.67-7.87,1.77-12.16-.28-22.45-4.03-33.62-.43,1.6-.53,4.01-2.2,4.98-3.06,1.77-24.48,2.92-28.75,2.27-9.09-1.37-4.9-9.25-9.19-12.24-2.96-2.06-8.3-.53-12.37-1.95-2.03-.7-5.9-5.81-6.89-7.7-1.7-3.24-2.2-6.88-4.41-9.96ZM358.51,400.56c-4.63,11.64,3.57,30.24-20.56,22.43-12.81-4.14-8.38-6.49-13.67-12.37-1.81-2.01-6.6-2.46-7.19-3.12-1.02-1.16-.44-7.38-4.24-8.89-.31-.93,4.22.15,1.31-3.03,7.99,1.81,8.1-4.64,13.26-7.9,2.03-1.28,5.54-1.53,6.23-2.18.94-.9.07-3.66,2.46-4.47,2.62-.89,24.63,6.34,25.35,7.42,3.11,4.68-1.91,9.51-2.94,12.11ZM285.13,396.78c-.61-3.31.67-2.1,2.87-2.76,5.2-1.57,10.29-2.29,15.6-.88-3.23,6.26-12.41,2.86-18.47,3.64ZM308.84,401.07c1.28,1.24,4.67,1.33,5.11,2,.85,1.28-.49,4.41.79,6,.85,1.05,3.25.65,4.35,1.52.87.68,3.63,7.55,4.43,8.63,1.22,1.65,3.76,2.12,4.48,3.19,4.66,6.85-7.51,9.94-10.65,13.33-4.02,4.34-4.56,4.51-8.46,8.03-2.44,2.2-1.27,6.33-5.68,8.27-5.35,2.35-8.9-6.14-13.24-5.13-3.4.79-3.7,7.47-7.52,9.02-9.5,3.87-7.04-1.22-8.48-5.54-3.2-9.59-1.03-9.51-2.04-16.31-.31-2.07-3.3-3.87-2.66-6.15.8-2.83,7.49-1.5,7.92-1.87,1.07-.91-.81-23.27-.01-26.85,4.58,1.13,9.93-1.59,13.88-1.34,2.85.18,4.81,2.53,6.31,2.33,1.27-.17,8.9-4.59,10.14-3.42.21.2-.21,2.82,1.31,4.28ZM343.2,300.4h-1.32c.41.77,1,1.73,1.32,2.44.16-.76-.23-1.87,0-2.44ZM66,69.82h-24.42c-1.77,0-7.24,2.51-9.9,2.44-.3.4-.44,1.33-1.32,2.44l-1.32,1.22c-.35.43-.88.86-1.32,1.22l-1.32,2.44c-.28.2-1.04-.2-1.32,0,.11,2.42-1.29,3.76-3.96,3.66-3.17,7.62-6.96,13.7-11.88,20.74l-1.32,1.22c-1.16,1.77-3.65,7.03-3.96,7.32-.03.76,1.3,1.14,1.32,1.22,4.43-.68,22.55,1.42,24.52-1.14,2.04-2.5-1.39-6.84-.19-8.63,1.45-2.15,8.69-2.72,9.78-5.68,1.28-3.43-1.5-15.36,1.53-16.28,4.04-1.22,18.23.31,23.75,0,.1-2.02-.1-4.08.01-6.1.16-2.82,1.85-3.69,5.28-2.44,2.31-2.12.74-5.33,1.55-7.75,1.12-3.35,14.25-9.06,17.93-10.22,7.3-2.3,14.37,1.38,13.51-8.86,5.03-1.28,4.89-3.13,6.31-3.62,2.82-.97,5.13,2.03,4.25-3.7-.71-.12-1.92-2.04-4.46-1.16-1.66.58-1.71,2.94-2.41,3.33-1.54.85-4.58-.07-5.02.27-.55.42,1.23,3.73,1.33,4.87-1.82.46-4.12.59-6.6,1.22l-6.21,6.12c-8.69-1.48-14.47,5.03-22.15,7.32-1.18-.93,4.04-4.33,4.34-4.49,5.06-2.65,17.45-7.44,22.7-8.95,4.44-1.52,3.69-6.93,4.03-7.24.41-.38,3.44.27,5.2-.73,1.01-.58.92-2.71,2.25-3.04,2.22-.54,10.35.61,10.96.02.58-3.55-1.48-2.98-2.64-6.09-2.11-5.62.63-10.72-3.93-13.01l-.03-1.63c-4.26.26-8.9.05-13.2,0-1.32-.01-5.82,2.35-5.28-2.44-.3-.17-.82-5.47-5.1-2.25-.74.56-4.55,11.21-8.01,13.92-3.39,2.66-12.96,5.17-15.9,8.48-.42.47-4.95,10.53-5.09,11.25-1.17,5.92,2.88,7.38-4.81,13.75-3.05,2.52-10.32,7.29-13.89,8.52l26.4,2.44ZM114.84,30.78c.26.36,5.03.38,5.38,1.97.29,2.63-1,4.65-2.74,6.57.51.13,1.11,2.32,2.16,2.39,4.67.29,6.49.81,10.45,1.21,8.29.83,13.06-.58,20.38-3.62l-3.96-2.43c-2.54-2.51,10.95-5.85,12.65-6.06,6.37-.79,11.97-.1,20.36-1.26-.12-2.59-.59-5.6,1.99-7.3-.74,2.99.11,4.61.65,7.3,7.66.07.83,2.99,6.56,5.7l.04,1.62c.36.15.94-.14,1.32,0,.87.32,1.04.29,1.32,1.22.1.35-.06.8,0,1.22,3.49,1.74.56,10.47,5.93,8.53,4.67-1.69-.36-4.71-.63-5.5-.93-2.76,1.91-1.03,4.02-2.62,1.98-1.49,6.25-7.36,5.2-10.17-3.24-2.81-3.97-5.81-9.24-4.89-.45-3.74,4.62-4.3,6.45-6.85,4.08-5.67-1.97-6.41-2.41-8.54-.31-1.54,3.89-4.16,2.56-5.33-.15-.13-2.57.2-3.87-.71-1.11-.78-1.2-2.82-2.32-3.04-6.48-1.32-9.62,4.58-10.22,4.67-1.35.19-9.53-2.28-14.28-1.82-17.94,1.75-33.47,2.72-50.6,9.34-2.85,1.1-3.7,3.14-7.16,3.76.59,2.67-.82,13.51,0,14.64ZM186.13,17.35c-.72-.67,1.9-6.34,2.62-4.87v4.87s-2.62,0-2.62,0ZM305.33,46.59l-1.73.05c1.12,17.26.79,33.52,1.26,50.68.12,4.28,1.72,8.01.06,12.76,3.07.08,6.17-.08,9.24,0,1.06-5.13-5.79-3.88-3.98-8.91.15-.42,6.18-6.17,6.6-6.37,3.85-1.8,10.53.35,14.92-.85,1.92-.52,3.22-2.92,5.26-3.68,5.96-2.23,11.91-2.79,17.9-4.19,4.67-1.09,4.97-5.22,11.08-.43,4.33,3.4,2.66,6.91,10.25,9.77-.14-.76.21-1.81,0-2.44-.15-.46-.93-1.61-1.32-2.44-3.53.57-2.69-.77-2.64-3.66-.09-.16-.05-.88,0-1.22-4.56.15-5.64-8.58-6.6-12.2-.1-.38.11-.84,0-1.22-2.52.03-5.77-5.82-6.91-7.65-1.54-2.47-5.64-7.19-4.86-9.86.38-1.31,2.82-2.72,3.83-2.01.4.28,3.21,7.06,3.98,8.54,2.05-.52,5.01,1.69,5.3-1.8.43-5.22-.38-9.94-3.98-14.06-1.75-.09-3.53.05-5.28,0-.87,1.92-5.73,1.92-6.6,0-.44-.02-.89.05-1.32,0-2.45-.29-3.03.95-2.64-2.44-1.29.12-2.69-.15-3.96,0,.83,3.57-3.77,3.24-6.6,3.66-3.16.46-2.26.07-3.96,0-.88-.04-1.76.04-2.64,0-3.25-.16-7-.9-10.56-1.22-4.8-.44-4.64,1.62-5.28-2.44-3.6.58-6.98.15-8.83,3.61ZM211.2,33.22c-.13.09.32,1.54-.37,2.11-1.07.89-3.17.09-3.59.33-.11.06.37,1.64-.32,2.13-1.26.91-3.92-.42-5.13,1.01-1.97,2.34-.42,8.88-1.32,10.12-2,2.74-9.57-3.09-5.12,9.92.06.19,2.13.52,2.63,3.03.83,4.19-1.09,7.33-1.32,11-.13,2.03,1.66,4.31,1.42,5.98-.07.51-5.52.31-.14,7.23.98,1.26,2.54.69,2.69.82,2.8-3.53,13.76,1.77,15.78-.06.29-.26.59-6.76,1.39-7.27.54-.34,3.89,1.27,5.77,1.12,1.59-.12,11.03-1.94,11.34-2.39,2.68-3.9-6.84-4.09-2.68-8.9,1.67-1.93,20.64-7.79,24.22-6.95,1.43.33,1.46,2.56,2.24,3.05,5.29,3.33,3.22-2,4.62-4.21,3.91-6.18,28.51,4.43,28.43-4.29-8.31-5.68.71-3.48,4.51-4.18,1.4-.26.32-2.69,1-3.45.7-.79,2.15-.13,2.38-.29,1.02-.74,2.54-1.18,2.6-1.3.46-.96-1.17-3.5-1.28-4.8-4.47-1.84-11.06-2.35-11.59-2.65s-.74-2.1-1.73-2.67c-6.05-3.45-16.7-5.43-17.11,3.53-.22,4.83,3.74,8.84-3.82,11-12.48,3.57-13.89-4.83-16.85-5.56-3.12-.77-8.1.87-11.39-.18-1.47-.47-8.37-8.14-12.75-9.57-2.96-.96-4.25-.7-7.92-2.44-.75-.36-2.05-.19-2.64-1.22-.46.06-.98-.11-1.32,0-.72.24-2.26-.27-2.64,0ZM213.84,371.16c0,.8-.08,1.64,0,2.44.18,1.96,4.34,6.83-1.32,6.1-.11.78.07,1.64,0,2.44l1.32,4.88c4.99,1.82,10.06,1.15,15.11,3.72,7.74,1.5,18.07-2.26,25.07-1.23,3.67.54,5.21,3.22,9.25,3.67,8.52.96,17.6.75,25.8-1.29-1.74-5.49-5.48-3.36-6.43-10.48-.34-2.51.3-21.66,1.15-22.46.5-.47,10.98.36,13.21,0v-12.19c-4.15-.31-9.15,2.17-13.21,1.21-.35-.08-1.24-1.89-2.4-2.32-7.93-2.92-7.06.85-11.78,2.03-8.2,2.04-22.79,4.13-30.36,7.31-2,.84-10.56,9.61-11.73,9.91-1.89.49-5.8-1.62-8.41.15-.53,2.39-2.3,6.77-5.28,6.1ZM217.8,310.16c.46,7.92,1.34,3.85,2.86,7.77,2.36,6.05.68,11.71,1.61,16.66.75,4.03,4.65,8,4.83,12.82.06,1.58-1.33,9.47-2,10.39-1.23,1.69-3.74.76-4.66,1.16-.44.19-.83.99-1.32,1.22-.21,1.53.31,3.48,0,4.88,2.61-1.76,6.51.34,8.41-.15,1.17-.3,9.73-9.07,11.73-9.91,7.57-3.18,22.16-5.28,30.36-7.31,4.72-1.17,3.85-4.95,11.78-2.03,1.16.43,2.05,2.24,2.4,2.32,2.28-6.5.34-11.94-1.32-18.3-.86-3.29-3.56-4.59-1.32-8.53-7.87.54-15.46-8.09-14.52,4.88-4.97-2.1-13.32,1.21-17.18-.6-3.2-1.5-6.15-11.86-5.26-15.27h-26.4ZM380.16,105.2c-3.94.84-5.65,3.93-6.62,7.31l-2.61-2.42c-.58,6.39-1.57,4.46-5.29,3.65-15.22-3.29-42.63-1.22-59.4-1.22-.77,6.22,3.48,16.12-6.6,14.64-2.32,7.89-1.14,16.28-1.32,24.4,9.75,2.1,13.62-7.22,18.07-9.53,3.24-1.68,7.11-.82,10.01-1.73,3.53-1.12,14.92-8.13,19.1-9.18,5.46-1.37,10.54,1.56,13.9.75s4.64-6.17,7.11-6.95c2.78-.87,9.78.53,10.86-.34,3.32-2.67-3.15-11.23,13.35-1.08-.41-2.17.28-5.01,0-7.32-.61-.14-1.24-.66-1.32-1.22-.15-1.12.3-2.88,0-3.66-.08-.2-1.21-2.35-1.32-2.44-.92-.7-6.14-1.51-7.92-3.66ZM337.92,290.64c.31,3.39.87,1.91,1.32,2.44-.49-1.38-.93-1.67-1.32-2.44ZM301.93,229.86c-2.07.42-5.97,1.8-9.37,2.58-2.43.56-3.46,3.84-5.61,4.23-4.68.86-11.17-2.53-15.03-4.59.24.22-.3,4.21,2.61,5.52,2.08.93,13.99,1.71,16.14.57,1.5-.79,1.5-2.87,3.22-3.42,3.58-1.15,9.67-2.77,13.66-3.88-.6.37-3.67-1.4-5.62-1.01ZM363,190.59h3.95c-.03,2.64.03,5.66,1.17,8.1,1.95,4.2,11.42,6.98-3.81,6.54-2.36,9.36,5.01,5.31,7.93,7.32-.15-.13.3-1.57-.37-2.06-1.44-1.04-4.5-.33-4.91-2.81h7.92c-.28-5.7-2.14-10.18,0-15.87,6.75,5.68,5.25-3.21,5.25-8.54-2.88-.08-.55,5.44-1.3,6.1-1.81,1.61-8.82-4.35-6.61,7.31-5.09,1.34-3.31-7.9-3.96-8.52-.39-.37-6.66-.15-7.95.56-3.31,1.83,2.95,5.58,1.36,9.19.69-2.25,2.25-4.17,1.32-7.33ZM289.08,188.15c-8.01-1.69-4.14,3.87-7.99,7.88-6.36,6.63-16.49,4.19-19.81,6.11-2.31,1.34,1.72,5.57-2.56,7.37-1.43.6-17.02,1.88-19.22,1.65-1.89-.2-3.17-1.21-4.54-2.26.85,9.8-6.12,9.38-6.6,14.64-.05.51,1.35,9.73,1.53,10.22.58,1.59,3.01,1.58,3.46,2.26,2.06,3.18-1.84,1.94,2.94,4.59-1.41-4.62-3.59-7.24-3.9-8.21-1.83-5.76-.75-13.43,4.5-17.46,5.71-4.38,19.92.57,25.84-5.41,1.54-1.56,2.1-4.73,2.89-5.26,3.58-2.4,21.78-2,18.19-12.48,3.15-.17,6.28.28,9.24,1.23.55,1.93,2.53,4.16,2.41,5.28-.21,2.06-3.67,3.78-1.83,6.91.87,1.48,7.67,5.24,9.83,6.85,2.51,1.88,9.57,6.1,10.05,6.57,1.69,1.64,1.4,4.95,3.31,6.71,1.53,1.41,5.09,1.65,5.27,1.85,3.66,4.43-7.32,2.38-7.92,2.42,4.01,2.89,4.16,1.64,7.79,3.17,2.82,1.19,9.33,4.84,11.66,5.17,3.12.45,7-3.04,8.25-2.24.17.11.54,2.64,1.34,3.66,2.88,3.68,3.81,2.43,3.96,8.54.2,8.58-4.83,7.4-6.59,14.63,9.81-2.66,9.92-11.53,9.23-19.52,8.71,1.44,15.58-1.99,23.65-2.32-.17,5.61,7.42,9.39,6.77,14.95-.07.61-8.75,7.03-9.11,8.9s5,6.66-.18,9.62c-2.96,1.69-14.4-1.66-18.95-1.43-2.95.15-10.43,4.09-11.41,3.23-.4-.35,1.12-4.99-1.96-3.65-1.95.85-3.21,10.58-4.64,13.41,1.08,1.33,3.29,3.56,3.96,4.88-.36-3.98.25-8.19,0-12.2,3.86,1.47,6.65.59,10.54,0,1.18,3.26-2.23,5.5-2.47,7.87-.27,2.7,2.7,7.18-2.78,9.78-1.18.56-2.22-.58-2.66-.57-.17,0-.8,1.02-1.32,1.22,1.06,3.09,2.29,3.02,2.64,3.66h1.32c.5-1.25,7.05-6.72,7.66-9.43.63-2.85-.89-11.28.26-14.97h21.78c1.33,0,22.17,11.43,22.82,12.49.74,1.21-.19,3.35.49,4.35.96,1.4,10.19,3.11,11.66,10,3.76,1.01,3-5.65,5.28-8.54-11.86,3.28-8.77-2.87-14.01-7.18-3.72-3.06-13.06-6.23-17.92-9.09-2.41-1.42-2.66-4.09-6.34-3.26l5.27-2.43c-.26-.52.53-2.11-.32-3.32-.81-1.16-5.4-1.68-4.87-4.46.69-3.68,12.54-5.5,6.22-17.01-1.8-3.29-1.86-1.2-3.98-7.2-.64-1.79-2.85-2.41-2.32-4.6,5.24.42,11.3-.66,16.4.07,6.69.97,7.98,6.74,15.96,7.25,9.73.63,10.52-6.85,20.43-3.67-.16,3.68-4.49,5.55-5.21,9.2-.7,3.53.32,7.87-.06,11.54l1.32,20.74c2.3-1.16,4.67-.14,3.96-4.88-3.72-1.77-3.51-24.31-1.92-28,.38-.87,5.67-8.18,6.46-8.67,7.7-4.77,13.5-4.29,20.98-6.01,1.51-.35.72-2.34.87-2.46.22-.17,1.61.14,2.15-.41,4.82-4.97,7.32-7.2,12.37-11.79,1.66-1.51,8.39-8.12,6.59-9.75-12.82,1.95-22.95-6.18-34.31-9.77,1.07,1.56.03,1.99,2.97,3.93,5.65,3.73,19.28,7.67,26.07,9.5-5.46,5.17-9.5,11.51-15.36,16.32-.64.53-.37,1.9-.48,1.97-2.97,1.87-10.68.74-14.67,1.74-2.48.62-2.18,2.74-3.45,3.08-5.26,1.43-10.95-.22-15.19.27-7.79.9-6.28,7.89-18.03,2.71-2.55-1.13-6.2-4.86-7.67-5.17-1.98-.41-6.27,1.69-6.98,1.04-.25-.24.06-4.93-1.21-6.6-1.45-1.92-4.51,1.76-5.39-6.82-3.75-1.15-3.98-5.09-6.01-7.3-1.04-1.13-2.92-.97-3.23-1.24.17.12.4,2.64,1.32,3.66,1.31,1.45,3.33,2.38,3.93,3.39,1,1.71,2.38,9.59,2.81,9.91,1.7,1.3,6.63-2.32,5.15,3.77-3.84-.17-8.12.53-11.55,2.1-1.88.86-1.46,2.51-4.21,3.43-6.44,2.16-14.01.94-20.44,3.04-6.31-12.51-9.22-6.03-18.2-7.67-4.91-.89-5.97-2.13-6.33-5.78-.67-6.89-1.97-1.73-6.08-4.74-2.21-1.62-1.25-5.32-3.15-6.85-1.44-1.16-6.04-1.32-6.5-1.92-.92-1.2,1.94-8.54,2.53-10.88-3.21,2.64-2.31,3.19-3.88,5.36-2.16,2.99-6.04-2.86-7.13-3.72-1.08-.84-4.41-.8-4.83-2.28-.55-1.96,2.46-3.58,2.65-4.25,1.09-4.01-2.14-5.1-5.28-6.1-.71-2.5.24-4.12-2.17-7.09-1.6-1.97-3.01-1.32-3.11-1.45,0,1.35,1.02,2.41,1.32,3.65ZM125.4,193.04c-.96,5.18-.78,18.75.08,23.72.66,3.82,3.26,5.1,5.2,8-5.01-.37-9.26,2.07-13.53,4.03-1.87.86-4.38.06-3.63,3.29,2.82-.4,13.07-3.78,16.18-4.93,1.62-.6.82-2.26.98-2.39.4-.33,3.57.68,2.64-2.44-8.68-2.41-3.42-20.41-7.92-29.28ZM236.28,124.72c.25,3.49-.68,18.29-1.58,21.11-.5,1.58-8.23,9.46-10.3,10.61-1.47,2.66-3.88,12.72-5.24,14.06-3.48,3.43-12.03.34-17.2.58-5.4.25-8.79,3.62-11.01,3.42-2.63-.23-5.77-4.21-8.33-4.41-2.34-.18-4.3,2.39-6.21,2.04-2.78-.5-6.19-4.69-14.36-4.4-10.12.36-13.55,5.67-13.53,14.3-2.87-2.54-5.17-6.19-6.61-1.2-3.2-1.06.07-5.44-.67-6.09-.57-.5-7.44.48-7.91,0-.39-.4.6-3.25-.26-4.61-.55-.86-3.81-.82-4.77-3.54-.37-1.04-.6-4.82-.18-5.21.32-.3,7.57-2.22,8.61-2.42,5.8-1.1,18.24,1.45,16.41-7.4h-1.32c-1.21,3.35-2.94,3.91-7.57,4.59-4.97.73-12.96,2.47-16.81,2.83-6.36.59-9.29-1.4-16.97,1.33-2.82,1-1.62,3.86-2.39,4.49-1.44,1.18-9.51-1.61-9.08,7.5-6.64-3.35-4.72-1.6-9.22,0l-1.34,8.52c-8.09-1.58-6.44,5.58-6.59,11-7.67-3.66-21.31,6.01-17.15-7.32-8.26-.73-4.41-5.22-5.28-6.11l-17.16,2.44,1.31-7.3c-2.68-.05-.35,3.75-3.44,4.73-2.55.81-7.87-.03-11.07.15,2.84,1.24,12.64,4.84,15.16,4.99,3.24.19,12.14-3.03,12.54-2.56.2.24-.25,2.36.75,3.6.84,1.04,2.76,1.1,3.08,1.49.69.84-1.16,2.83-1.18,3.95,0,.51,4.56,3.45,5.34,8.61,1.09,7.26-2.73,7.06-2.78,7.5-.47,4.25,4.75,6.21-6.51,7.8-.05-2.04-.2-4.92-1.25-6.67-.54-.91-1.97.21-2.68-.23-6.86-4.25-1.11-11.66-14.06-12.59-2.9-.21-4.76.95-7.09,1.18-.36,4.26,1.87,1.59,3.69,1.58,15.93-.1,8.24,1.71,12.22,9.73.64,1.29,2.45.84,2.53.94.55.76-6.94,9.65-10.52,8.49.18.14.52.9,2.64,2.44.66-1.98,5.59-7,7.01-8.14,1.32-1.06,3.04-1.82,4.86-1.61v7.32s8.6-1.2,8.6-1.2c.66,1.63-2.85,6.26-2,7.27.3.36,7.57,3.28,8.96,3.91l1.59,3.43c2.04-5.58-7.29-6.63-7.9-7.35-.47-.55,3.03-10.05,3.47-11.81.53-2.11-3.3-3.26,3.13-2.8-1.62-2.3.11-5.11-.07-6.56-.11-.88-2.28-.64-2.55-1.59-.26-.94-.23-5.08-.03-5.26.74-.7,19.81-1.4,21.13-1.22-1.68-4.48-2.03-.59-1.61-6.74.08-1.18-1.13-2.88-1.03-3.01.22-.3,6.02-.67,7.29-2.44,1.23-1.72.76-6.25,1.98-8.55,2.46.19.15,3.84,4.42,2.27,4.16-1.53,4-7.64,4.97-8.22,1.52-.91,6.17.33,8.35-.07,1.4-.26.2-2.86.9-3.5.31-.29,7.94-2.55,8.38-2.58,6.96-.52,3.5,5.29,5.26,8.48.89,1.61,3.74,1.83,4.32,2.7.87,1.33-.11,4.23,1.58,5.27,1.44.89,4.83.14,5.28.6.48.49-.27,2.75.07,3.91.44,1.5,3.07.46,2.63,1.49-.29.69-11.3,4.17-12.59,4.25-4.97.3-6.77.83-10.57,1.2-3.98.39-9.82-.71-12.97,0-1.64.37-.55,1.93-.83,2.49,6.66-.59,14.3,1.91,19.79-2.44-1.1,2.91,2.41,4.39,2.65,4.88.21-1.12-.17-2.48,0-3.66h5.28c-4.29,6.16,1.79,6.24,2.61,8.25,2.65,6.51.69,17.62,1.35,24.69,2.25-.02,3.75-1.21,3.96-1.22-2.2-8.79-.87-17.11-4.04-25.94-.52-1.45-2.81.1-2.52-3.77.53-7.06,8.71-3.22,12.52-9.32,3.59-.76,4.94,10.52,4.74,12.83-.15,1.76-6.26,6.75-6.52,7.46-2,5.37-.25,13.16-.22,18.74.51,0,2.07,0,2.64,0-.1-1.61.15-3.28,0-4.88-.37-3.85-1.21-8.73.08-12.5.44-1.3,6.32-4.48,6.56-5.48.84-3.51-1.05-12.79-.07-18.02.21-1.12,2.51-8.61,2.85-8.95.29-.29,7.34-1.43,8.47-1.45,6.6-.11,8.28,4.2,12.1,4.75,3.29.47,5.46-2.43,7.43-2.09,1.78.31,3.14,3.35,4.83,4.1,6.74,2.96,10.07-3.78,15.28-4.27,4.27-.4,6.64,2.36,10.45,2.54s8.18-2.78,8.54-2.53c.33.23,2.38,4.96,3.99,6.76,1.65,1.84,5.4,1.22,3.84,4.72-.86,1.93-4.67,2.35-5.81,4.4-2.08,3.73-2.99,7.12-5.84,11.94-1.74,2.94-2.6,7.29-5.39,10-.07.8.14,1.71,0,2.44,1.29-1.29,4.24-1.28,6.44-5.74,1.4-2.82.26-4.51.51-5.02.11-.22,2.05-.24,2.7-1.72,2.37-5.48,1.15-12.49,10.14-13.15l1.33,8.54c-10.78-1.12-11.08,2.67-2.64,7.33-.04-.38-.06-.85,0-1.22-1.89-.8-3.1-1.62-2.63-3.65,1.31,0,2.64-.03,3.95,0,.86.02,1.9-.14,2.64,0,4.58-3.9.79-4.71.11-8.04-.54-2.66-.42-7.21-1.68-9.42-1.45-2.53-4.43-1.91-6.42-3.83-1.5-1.46-4.15-7.65-4.06-9.86.1-2.19,2.46-1.57,2.75-2.65.73-2.67-.49-4.85,1.51-8.16,2.41-3.98,9.09-4.4,10.42-10.5.56-2.56-.36-8.33.03-11.61.24-1.99,1.28-1.7,1.29-1.81.06-.81-.07-1.64,0-2.44.14-1.6-.04-3.27,0-4.88h-2.64ZM438.24,195.48c.22.91-.59,2.48.3,3.39.56.58,1.81.1,2.34.27-.73-1.06.04-2.94-2.64-3.66ZM313.72,203.6c.41-.2.41-1.86,1.28-2.03,6.81-1.39,5.04,5.23,7.91,6.06,2.01.58,4.24-1.05,6.22-.79,1.62.21,3.04,2.18,6.8,2.22,5.9.06,4.23-1.96,6.47-3.39.76-.49,2.03-.32,2.94-.89.74-.47.47-1.85.58-1.92.47-.3,2.85,3.85,10.49,1.17-2.54,1.64-7.71-3.7-9.93-3.69-2.77.01-8.83,6.69-11.71,6.14-1.78-.34-2.99-1.71-4.48-2.11-7.69-2.06-4.29-1.28-9.12-4.06-6.15-3.55-8.35-1.34-9.65,3.72.08-.07,1.18.08,2.2-.42ZM234.33,203.97c-.94-1.3-2.71-.83-3.34-1.17.21,2.28,2.11,4.69,3.96,6.1-.14-1.63.47-3.41-.62-4.93ZM187.63,224.28c-.93,2.76.28,7.16-1.51,10.24h3.96c-.18-2.32-.06-10.99,1.32-12.2-.31.3-3.07-.12-3.77,1.96ZM312.1,227.29c-4.64-1.05-4.08,3.29-4.54,3.57,2.2-.61,4.29-1.06,6.6-1.22-.47-.34-.73-2.05-2.06-2.35ZM275.88,117.4v1.22c6.54,3.26,12.39,7.09,18.48,10.98.35.22,1.85-.25,2.62.03.57,1.38-1.24,2.9-1.3,3.63-.06.81.03,1.63,0,2.44-.12,3.03.73,17.68.01,18.31-.48.42-4.88-.44-5.3-.02-.45.46.7,3.77-.17,4.72-.64.7-5.05-.06-6.18,3.45-1.71,5.32-1.31,12.61,1.08,17.46.83,1.7,1.44,3.34,2.64,4.88,0-1.53.79-5.94,1.32-7.32-.26-1.58-3.66-2.41-3.74-2.61-.22-.53,1.1-10.7,1.3-11.24.55-1.49,3.02-2.01,4.34-3.37.78-.8.46-2.93.93-3.33,2.89-2.48,6.21,4.36,6.42-5.07.18-8.12-1-16.51,1.32-24.4.11-.98-.31-1.21-1.32-1.22-.14,0-.99,1.3-2.59.74-4.08-1.42-10.32-6.08-14.57-8.06-.87-.4-3.27-.28-5.28-1.22ZM269.74,229.89c-8.34-2.36-11.87,5.26-11.03,11.95-5.03-4.03-16-1.92-15.84,4.88-2.98-1.72-3.19-4.21-6.59-6.1,1.41,4.61,3.77,7.73,3.95,12.19-4.99.83-9.14-2.05-13.84-2.44-4.62-.38-28.59.91-29.71,0-.36-.29.29-2.74,0-3.66-4.1,1.83-1.19,5.32-1.32,6.1,3.33.59,22.95-.81,23.76,0,.47.46-1.03,5.26,1.28,6.81,1.63,1.09,6.27-2.4,7.94,1.15,1.39,2.96-3.59.94-4.03,2.47-.57,1.94-.27,8.02,2.09,9.09,4.69,2.12-.4-4.13-.52-4.43-.93-2.46,2.54-1.81,3.8-2.88,0-.49,1.26-1.83,1.3-3.15.2-5.78-5.59-5.77-10.55-5.4v-3.65c7.11-.72,13.75,1.66,20.36,3.56,6.13-8.37,3.03-17.45,17.93-13.31-5.25,8.55-3.64,21.53-6.81,29.69-.18.48-8.5,5.56-9.03,5.68-3.24,3.95-.95,12.36-2.97,15.57-.2.32-5.93,4.49-6.29,4.66-2.3,1.09-3.27-1.79-6.63-1.47-.74.07-6.81,2.8-9.44,3.53-1.57.43-2.69,2.06-4.33,2.15-.97.06-1.35-4.53-4.65-3.7,2.47,7.88,10.01,20.04,11.37,26.8.68,3.37-.74,5.46-.31,8.61.54,3.91,4.13,7.38,4.5,10.61.47,4.14-1.98,9.93-3.68,13.76.91-.39,3.43.53,4.66-1.16.67-.93,2.06-8.81,2-10.39-.18-4.82-4.08-8.79-4.83-12.82-.92-4.95.75-10.61-1.61-16.66-1.53-3.91-2.4.15-2.86-7.77-.02-.41.02-.81,0-1.22-.01-.26-2.55-1.78-.76-3.73,1.09-1.19,4.17-1.05,5.93-1.84,1.37-.62,2.5-2.69,3.58-2.86,1.66-.26,3.24,2.34,5.12,2.38.41,0,6.93-3.45,7.24-3.7.12-.1-.18-1.32.47-1.99.88-.91,2.76-1.08,3.27-2.45,1.23-3.23-.89-7.71.9-11.4,1.68-3.46,8.68-5.27,10.89-9.46,1.62-3.07,2.07-8.66,2.94-12.53,1.2-5.29,2.26-10.14,3.62-15.56.76-3.03-.26-6.37.61-9.19.1-.32,3.59-5.44,3.89-5.63.27-.17,6.17.89,6.4,1.1-.28-.15-.49-1.71-2.18-2.19ZM199.81,220.11c2.04.38,2.94,4.14,6.5,3.3,5.03-1.18,5.51-7.32,6.21-10.85-2.7,2.69-3.8,8.03-8.53,7.37-.68-.1-.58-2.3-1.58-2.51-2.88-.63-7.57.99-10.11,2.42-1.23.7-.75,2.32-.9,2.47.32-.28,7.87-2.31,8.41-2.21ZM411.02,165.01c5.74.32,15.29,7.55,17,12.55,1.54,4.48-1.47,7.55-.2,11.07.73,2,3.69,1.79,3.81,1.96h1.32c2,.49,1.31,3.17,1.32,4.88,1.22.05,3.05-.24,3.96,0-.65-2.67-1.08-4.52-1.32-7.32-1.24-.16-2.84.23-3.96,0-6.99-1.45-3.02-5.82,1.32-8.54.04-.16,1.65-.22,1.33-1.2-6.5.29-6.06-3.79-7.93-7.34-4.03-1.09-8.03-6.43-15.84-8.54-7.86-2.12-4.52,1.09-5.97,1.28-3.65.49-8.03-6.55-7.23,1.16,4.78.28,8.53-.18,12.38.03ZM361.68,197.92c-.1.22-2.95,2.04-4,3.04-1.06,1.01-1.13,2.97-1.28,3.06,5.64-1.98,3.87-1.49,5.28-6.1ZM264.09,418.02c-1.52-2.01-16.9-.64-17.94.7-.81,1.05-.51,3.43-1.35,4.85-2.47,4.16-9.29,3.95-13.8,3.72h-1.32c.59,2.24-.08,6.98,0,9.76l1.29.61-1.29.61c.01.41-.01.81,0,1.22s-.01.81,0,1.22c7.03,1.29,5.69,10.74,6.97,14.91,2.85,9.26,16.32,17.32,26.48,14.17,6.53-2.02,1.47-19.61,1.37-25.01-.1-5.78,2.46-14.88,2.14-19.93-.02-.36-2.2-6.36-2.55-6.83ZM491.04,183.28c-.93,1.96-2.75,2.92-4.91,3.39-9.79,2.16-20.03,2.95-29.75,4.2-2.14.28-3.93,2.27-6.94,2.27-5.67,0-6.51-6.92-12.52-6.21.01.41-.03.82,0,1.22.24,2.8.67,4.65,1.32,7.32,2.68.72,1.91,2.6,2.64,3.66,11.37,3.59,21.49,11.72,34.31,9.77,1.79,1.63-4.93,8.25-6.59,9.75,2.76,3.87,6.75.94,10.56,1.23v7.31c1.32-2.23,1.47-6.95,3.71-9.39l13.45-22.33c.02-.41-.01-.81,0-1.22.12-3.62-1.57-7.07,0-10.98h-2.63c-.09.08-2,.06-2.64,0ZM425.89,196.84c-3.13,1.56-4,4.58-6.27,6.44-10.79,8.87-11.07,2.48-21.62,4.43-2.7.5-3.55,2.49-5.59,3.36-5.54,2.38-11.67,2.86-10.93,10.03.89,8.58,3.94,4.91,5.39,6.82,1.27,1.68.96,6.37,1.21,6.6.7.66,5-1.45,6.98-1.04,1.47.31,5.12,4.04,7.67,5.17,11.76,5.18,10.24-1.81,18.03-2.71,4.24-.49,9.93,1.16,15.19-.27,1.27-.34.96-2.46,3.45-3.08,3.99-1,11.7.13,14.67-1.74.11-.07-.16-1.44.48-1.97,5.86-4.81,9.89-11.15,15.36-16.32-6.79-1.83-20.42-5.77-26.07-9.5-2.94-1.94-1.9-2.38-2.97-3.93-.54-.17-1.78.31-2.34-.27-.89-.91-.08-2.49-.3-3.39-.91-.24-2.74.05-3.96,0-1.77-.07-6.68.5-8.39,1.36ZM191.39,271.53c-.26,1.08-3.07.34-2.68,2.56.16.9,4.76,9.96,5.51,10.89,1.99,2.48,7.22,4.65,9.06,6.87,7.94-1.24,3.98-1.67,4.41-5.3.61-5.05,3.14-2.36,5.12-3.3,1.35-.64,1.14-2.38,1.76-2.45,2.81-.29,4.14,2.13,5.46,2.3,1.64.22,4.7-3.54,8.31-1.02l2.65-4.88c-.03-3.79-1.4-7.6-1.32-12.2-1.26,1.07-4.72.42-3.8,2.88.11.3,5.21,6.55.52,4.43-2.36-1.07-2.65-7.14-2.09-9.09.45-1.54,5.43.48,4.03-2.47-1.67-3.55-6.31-.05-7.94-1.15-2.31-1.55-.81-6.35-1.28-6.81-.81-.8-20.43.6-23.76,0-.93,5.66-2.64,13.08-3.97,18.71ZM375.69,148.18c-1.45.27-8,6.64-11.02,7.98-6.05,2.68-13.42,2.77-19.17,4.24-2.29.58-4.16,3.44-6.92,3.33-2.29-.09-5.18-3.74-8.48-2.31-2.55,13.62-3.41,8.15-13.89,9.74-5.48.83-19.72,7.02-23.64,6.1-1.1-.26-.95-1.67-.86-2.49h-1.28c.29,1.11-1.09,1.8-1.34,2.43-.53,1.38-1.32,5.79-1.32,7.32.1.13,1.51-.52,3.11,1.45,2.41,2.98,1.46,4.6,2.17,7.09,3.14,1.01,6.37,2.09,5.28,6.1,9.06,5.65,9.67-5.25,12.65-5.89,2.05-.44,8.33,2.1,10.53,2.05.6-.01.44-1.79,1.58-2.16,1.62-.54,6.09-.57,6.74-1.5,1-1.45-1.05-6.08,2.86-7.78,1.54-.67,3.72.53,5.3.08,6.29-1.8,12.81-3.2,18.51-4.86,5.04-1.46,7.43-8.03,15-6.78,2.05.34,3.73,2.44,5.41,2.46,2.63.04,4.67-4.76,8.55-3.69.13-.16,2.32.64,2.71-.76,1.06-3.84-1.64-7.62-2.31-11.04-.27-1.39,1.07-3.19.92-4.06-.65-3.82-6.92-7.8-11.07-7.04ZM269.7,191.65c-2.06.46-5.58-1.41-8.89-1.05-3.17.35-4.59,2.57-7.03,3.38-2.12.7-5.31-.27-6.72.49-1.03.55-3.31,7.74-2.87,9.55-2.12.15-1.51-2.53-3.19-3.74-.51-.37-5.33-2.22-6.03-2.35-.74-.14-1.78.02-2.64,0,.7,1.48-1.25,3.17-1.32,3.66-.06.37-.04.84,0,1.22.62.34,2.4-.13,3.34,1.17,1.09,1.52.48,3.3.62,4.93,1.38,1.04,2.66,2.06,4.54,2.26,2.19.23,17.78-1.05,19.22-1.65,4.28-1.8.25-6.04,2.56-7.37,3.32-1.92,13.44.52,19.81-6.11,3.85-4.01-.02-9.57,7.99-7.88-.3-1.24-1.32-2.3-1.32-3.65-1.2-1.54-1.81-3.18-2.64-4.88-7.36-1.47-11.55,11.16-15.42,12.03ZM206.31,223.41c-3.57.84-4.47-2.92-6.5-3.3-.54-.1-8.09,1.93-8.41,2.21-1.38,1.21-1.5,9.88-1.32,12.2.45,5.9,2.09,2.92,2.64,3.66l3.98-9.76c4.21-1.33,1.91,2.94,2.63,3.67.26.27,7.18-.54,7.79-.71,4.2-1.2,8.57-6.47,12.55-5.31,2.35.68.92,4.65,4.73,3.57.64-4.15-2.59-9.08,3.97-6.09.48-5.26,7.45-4.84,6.6-14.64-1.85-1.41-3.75-3.82-3.96-6.1-8.44-4.66-8.13-8.45,2.64-7.33l-1.33-8.54c-8.99.65-7.77,7.67-10.14,13.15-.64,1.48-2.59,1.5-2.7,1.72-.24.51.89,2.19-.51,5.02-2.21,4.46-5.15,4.45-6.44,5.74-.69,3.53-1.18,9.67-6.21,10.85ZM221.1,223.54v-1.22c.86.41.86.81,0,1.22ZM192.73,227.21c.46-.83,2.24.71,1.29,2.43-.46.83-2.24-.71-1.29-2.43ZM145.2,221.1c4.34.04,7.67-.55,11.88,1.22l2.64,1.22c.22.26.69,2.56,1.32,3.66,3.53-.57,2.69.77,2.64,3.66.25.58-.21,1.74,0,2.44,2.8-.29,2.96-.15,2.64,2.44,2.36.22,5.48.1,7.92,0-.66-4.96,2.82-1.3,3.96-1.22,2.59.18,5.31,0,7.92,0,1.79-3.08.58-7.48,1.51-10.24.7-2.09,3.46-1.66,3.77-1.96.15-.15-.33-1.78.9-2.47,2.54-1.44,7.23-3.05,10.11-2.42,1,.22.89,2.42,1.58,2.51,4.73.66,5.83-4.69,8.53-7.37.14-.73-.07-1.64,0-2.44.19-2.12.94-4.03,1.32-6.09-3.71-1.17-2.27,2.13-2.66,2.39-2.79,1.81-2.61-2.05-2.79-2.17-1.89-1.35-4.78,3.07-7.31,3.27-2.55.21-3.35-3.35-6.15-3.29-3.33.07-3.62,3.62-5.73,4.41-2.13.79-4.63.26-7.53,1.63-3.3,1.55-9.79,10.6-14.1,7.84-1.4-.9-1.61-7.13-4.67-.57l-17.69-1.31c.15,1.6-.1,3.27,0,4.88ZM307.56,230.86c-4,1.11-10.09,2.73-13.66,3.88-1.72.55-1.72,2.63-3.22,3.42-2.16,1.14-14.06.36-16.14-.57-2.91-1.3-2.38-5.29-2.61-5.52s-6.13-1.27-6.4-1.1c-.3.19-3.79,5.31-3.89,5.63-.86,2.82.16,6.16-.61,9.19-1.36,5.42-2.43,10.27-3.62,15.56.33,1.88,3.78,2.31,3.91,2.5.48.74-5.53,9.12-.62,7.25,1.79-.68,3.99-4.67,5.98-5.46,2.5-1,5.34-.28,7.84-1.29,4.02-1.63,13.17-9.42,15.5-10.08,4.79-1.36,9.82,1.71,12.7.86,1.81-.54,5.97-7.52,14.88-8.41,3.74-.37,7.27,1.71,10.11,1.02,2.57-.63,6.16-5.37,6.62-5.55,2.8-1.1,6.83.41,8.88-2.8-.8-1.02-1.17-3.55-1.34-3.66-1.25-.8-5.13,2.69-8.25,2.24-2.33-.33-8.84-3.98-11.66-5.17-3.63-1.53-3.78-.28-7.79-3.17-2.31.16-4.4.61-6.6,1.22ZM224.39,229.63c-3.82,1.08-2.39-2.89-4.73-3.57-3.98-1.16-8.35,4.12-12.55,5.31-.61.17-7.52.98-7.79.71-.72-.73,1.58-5-2.63-3.67l-3.98,9.76c1.3,1.75,3.25,6.31,3.96,8.54.29.92-.36,3.37,0,3.66,1.12.9,25.09-.39,29.71,0,4.7.39,8.85,3.27,13.84,2.44-.18-4.46-2.55-7.59-3.95-12.19-4.78-2.66-.88-1.41-2.94-4.59-.44-.68-2.88-.67-3.46-2.26-.18-.49-1.57-9.71-1.53-10.22-6.56-2.99-3.32,1.94-3.97,6.09ZM194.05,235.75c.46-.83,2.24.71,1.29,2.43-.46.83-2.24-.71-1.29-2.43ZM283.8,191.81c3.59,10.48-14.61,10.07-18.19,12.48-.79.53-1.35,3.7-2.89,5.26-5.92,5.98-20.13,1.03-25.84,5.41-5.25,4.03-6.33,11.69-4.5,17.46.31.97,2.49,3.59,3.9,8.21,3.39,1.89,3.61,4.38,6.59,6.1-.16-6.8,10.81-8.91,15.84-4.88-.84-6.69,2.69-14.32,11.03-11.95,1.7.48,1.9,2.04,2.18,2.19,3.87,2.06,10.36,5.45,15.03,4.59,2.16-.4,3.19-3.68,5.61-4.23,3.4-.78,7.3-2.16,9.37-2.58,1.96-.4,5.02,1.37,5.62,1.01.46-.28-.09-4.62,4.54-3.57,1.33.3,1.58,2.01,2.06,2.35.59-.04,11.58,2.01,7.92-2.42-.17-.21-3.74-.45-5.27-1.85-1.91-1.76-1.62-5.07-3.31-6.71-.48-.47-7.54-4.69-10.05-6.57-2.16-1.62-8.96-5.38-9.83-6.85-1.84-3.13,1.62-4.85,1.83-6.91.11-1.13-1.87-3.35-2.41-5.28-2.96-.95-6.09-1.4-9.24-1.23ZM23.42,184.19c-.95,1.07-6.1,2.19-7.58,3.97.3.33.53,1.52,1.32,2.44l1.32,1.22c1.39,1.55,3.21,2.79,3.96,3.66,2.59-.17,5.36.26,7.92,0,2.34-.23,4.2-1.39,7.09-1.18,12.95.93,7.2,8.33,14.06,12.59.71.44,2.14-.68,2.68.23,1.04,1.75,1.2,4.63,1.25,6.67,11.25-1.58,6.04-3.54,6.51-7.8.05-.44,3.86-.25,2.78-7.5-.77-5.16-5.34-8.1-5.34-8.61.01-1.12,1.86-3.11,1.18-3.95-.32-.39-2.24-.45-3.08-1.49-1-1.25-.55-3.36-.75-3.6-.39-.47-9.3,2.75-12.54,2.56-2.52-.15-12.32-3.75-15.16-4.99-7.44.42-2.69,2.5-5.62,5.79ZM231,278.44c-.16,1.09-2.91,7.24-3.46,7.39-3.25.86-15.47-1.95-17.66-.06-.5.44,1.32,3.19,1.25,4.35-.22,3.33-3.6,1.42-2.56,7.84.07.42-.11.88,0,1.22,3.31-.83,3.68,3.76,4.65,3.7,1.64-.1,2.76-1.72,4.33-2.15,2.63-.73,8.7-3.46,9.44-3.53,3.37-.33,4.33,2.56,6.63,1.47.36-.17,6.09-4.34,6.29-4.66,2.02-3.21-.27-11.62,2.97-15.57-3.14.69-8.37-.48-11.88,0ZM392.44,146.98c-.83,2.49.12,4.98-.65,7.39-.53,1.66-3.11,2.62-3.51,4.13-.24.9,1,6.11,1.27,6.33.87.68,5.81-.07,7.77.14.43.05.88-.03,1.32,0-.8-7.71,3.58-.67,7.23-1.16,1.44-.19-1.89-3.41,5.97-1.28-.17-1.15.26-2.63,0-3.66-.64-2.56-2.82-8.5-3.96-10.98-.56-1.22-1.19-3.44-1.32-3.66-.06-.09-1.71.3-2.25-.39-1.69-2.12,1.54-2.8-3.03-3.27.65,3.58-7.87,3.49-8.84,6.4ZM225.72,35.66v1.22c4.38,1.42,11.28,9.09,12.75,9.57,3.29,1.05,8.27-.59,11.39.18,2.96.73,4.37,9.13,16.85,5.56,7.56-2.16,3.6-6.16,3.82-11,.41-8.96,11.06-6.98,17.11-3.53,1,.57,1.22,2.38,1.73,2.67s7.11.82,11.59,2.65c.49.2,2.04-.4,2.52.1.51.54.06,2.54.12,3.56l1.73-.05c1.85-3.46,5.23-3.03,8.83-3.61.64,4.06.48,2.01,5.28,2.44l-1.32-2.44c-1.29.08-2.79-.19-3.96,0-.09-.56.21-2.29,0-2.44-.9-.63-9.58.54-12.28-.04-.58-.13-9.32-3.35-10.58-3.9-2.14-.93-1.89-3.32-4.74-4.08-5.3-1.42-16.59-.78-19.31,4.36-1.91,3.62,2.89,10-3.26,12.85-5.63,2.61-7.32-3.52-11.83-4.97-3.56-1.14-11.84-.81-14.25-2.08-2.09-1.1-2.28-6.11-8.24-8.23l-3.96,1.22ZM234.42,466.22c1.82,3.36,10.3,11.55,10.83,13.17,1.26,3.88,4.84,13.8,5.47,16.9.9,4.39-.42,9.31,1.53,14.2.12.3,3.52,5.05,3.74,5.29,2.19,2.37,11.84,2.47,15.02,1.77.99-.22.8-2.16,1.82-2.38,2.98-.65,11.32,1.44,10.97-3.69-4.33.29-8.6,1.94-13.2,1.22-.61.48-.94,1.69-1.7,2.11-1.31.72-2.52.16-3.58.33s-.5.09-1.32,0c-1.24-.13-2.99.26-3.96,0-2.72-.73-1.93-2.25-2.64-3.66-1.05-2.08-.81-3.54-1.32-4.88-.06-.14-2-.41-2.47-2.03-.78-2.73,1.71-6.03,1.15-9.46-.22-1.34-10-23.27-11.05-24.66-1.62-2.17-5.19-3.95-7.11-7.45-3.08-5.62-3.24-13.23-6.92-18.61.26,7.95.48,14.01,4.74,21.85ZM142.56,221.1c-.02-5.59-1.77-13.38.22-18.74.26-.7,6.37-5.7,6.52-7.46.2-2.32-1.15-13.6-4.74-12.83-3.8,6.1-11.99,2.27-12.52,9.32-.29,3.86,2,2.32,2.52,3.77,3.17,8.83,1.84,17.15,4.04,25.94,1.32-.04,2.64.03,3.96,0ZM22.44,195.48c5.9,6.86,3.22,7.64,5.96,13.41,1.62,3.41,7.69,5.66,9.88,7.33,3.58,1.16,11.07-7.73,10.52-8.49-.08-.1-1.89.34-2.53-.94-3.98-8.02,3.7-9.82-12.22-9.73-1.82.01-4.05,2.68-3.69-1.58-2.56.26-5.33-.17-7.92,0ZM133.32,222.32c.32.09.88,0,1.32,0-.66-7.07,1.3-18.18-1.35-24.69-.82-2.01-6.9-2.09-2.61-8.24h-5.28c-.17,1.16.2,2.53,0,3.65,4.5,8.87-.76,26.87,7.92,29.28ZM122.75,188.16c-5.48,4.35-13.12,1.84-19.79,2.44-.53,1.09-1.8,1.96-1.32,3.66,2.6.15,3.01-.72,2.64,2.43-4.33-1.08-13.78,3.35-16.59.04-.95-1.12-.25-2.86-.57-3.7-1.32-.18-20.39.52-21.13,1.22-.2.19-.23,4.32.03,5.26.27.96,2.44.72,2.55,1.59.18,1.45-1.54,4.26.07,6.56-6.43-.46-2.6.69-3.13,2.8-.44,1.75-3.94,11.25-3.47,11.81.61.72,9.94,1.78,7.9,7.35l-1.59-3.43c-1.38-.63-8.65-3.55-8.96-3.91-.85-1.01,2.66-5.63,2-7.27l-8.6,1.2v-7.32c-1.82-.21-3.54.55-4.86,1.61-1.43,1.15-6.35,6.17-7.01,8.14,6.18,4.47,12.35,8.88,18.48,13.42l1.32,1.22c1.25.87,3.41.86,3.96,1.22l3.31-3.66.66,3.67c1.86.05,3.5-.97,5.27-1.23,1.24-.18,2.71.17,3.96,0l1.32-1.22c.43-.06.89.07,1.32,0-1.51-3.78,6.82-3.24,9.24-1.22,2.22-.37,4.34-.9,6.6-1.22,2.16-.31,3.53-.95,6.6-.01-7.66-9.4-.5-14.46,1.06-21.63.76-3.52-2.65-8.96.9-8.84,7.37,6.93-2.67,14.35-2.91,19.09-.25,5.01,4.52,8.84,3.59,13.84,2.39.05,5.73.31,7.92,0-.75-3.23,1.76-2.43,3.63-3.29,4.26-1.96,8.52-4.4,13.53-4.03-1.94-2.9-4.55-4.18-5.2-8-.85-4.97-1.03-18.54-.08-23.72-.25-.49-3.76-1.97-2.65-4.88ZM330,495.61c-3.88,3.52-8.53,6.02-13.2,8.54-9.69,5.23-11.98,6.19-23.76,6.1-.88,0-1.76,0-2.64,0v1.22c.13.09-.46,2.37.76,2.48,1.1.11,20.9-2.08,21.95-2.54,1.62-.71,1.71-2.75,3.14-3.45,6.88-3.39,9.35-2.97,15.13-9.3,1.01-1.1.91-2.63,1.26-3.06h-2.64ZM105.6,232.08c.93-5-3.84-8.83-3.59-13.84.24-4.74,10.28-12.16,2.91-19.09-3.55-.12-.14,5.33-.9,8.84-1.56,7.17-8.71,12.23-1.06,21.63-3.07-.94-4.44-.3-6.6.01,1.32,3.51,5.92,2.37,9.24,2.44ZM227.08,435.23c.4,2.25-1.68,4.95,2.59,4.26-.01-.41.01-.81,0-1.22s.01-.81,0-1.22c-.08-2.78.59-7.52,0-9.76-.26-.98-4.13-5.57-5.28-8.54-.46-1.2-.84-2.5-1.32-3.66-4.2.84-2.66-4.96-6.6-6.1,2.92,10.51,9.1,17.64,10.61,26.25ZM390.72,116.18c.28,2.31-.41,5.15,0,7.32,1.37,7.32,5.69,10.99,9.24,17.08.4-.05.92-.04,1.32,0,4.57.47,1.34,1.15,3.03,3.27.55.68,2.2.29,2.25.39,3.58-5.22-.16-4.16-1.86-6.21-.79-.95-.5-2.92-1.02-3.35-1.03-.86-3.76.68-5.19-.95-.24-.27-3.49-5.92-3.57-6.26-.68-2.72-1.45-4.4-1.55-4.77-.58-2.33.31-5.28-.02-7.74h-2.64v1.23ZM228.35,282.1c-3.62-2.52-6.68,1.24-8.31,1.02-1.32-.17-2.65-2.59-5.46-2.3-.63.06-.41,1.81-1.76,2.45-1.98.94-4.52-1.75-5.12,3.3-.44,3.62,3.53,4.05-4.41,5.3.78.94-.19,6.47,5.28,6.1-1.04-6.42,2.35-4.51,2.56-7.84.07-1.16-1.75-3.91-1.25-4.35,2.19-1.9,14.41.92,17.66.06.55-.15,3.31-6.29,3.46-7.39.06-.39,0-.82,0-1.22l-2.65,4.88ZM351.12,472.43c-1.43.54-.97,2.71-1.65,3.36-.75.72-2.01.14-2.31.3.11,1.16-.67,1.66-1.32,2.44-1.98,2.36-8.38,11.82-9.24,12.2v1.22c1.12-.37,3.56.61,5.29-.57.69-.47,7.33-10.94,8.7-12.73,2.02-2.64,4.14-.71,4.49-6.23-1.14.21-3.13-.31-3.96,0ZM363,45.42c3.6,4.12,4.41,8.84,3.98,14.06-.29,3.49-3.25,1.28-5.3,1.8,1.08,2.07,3.73,5.32,3.96,6.1h3.96c-.24-4.49.54-9.02,1.32-13.42l-1.32-2.44c-.24-.19-1.2-4-1.32-4.88-1.63-1.03-3.38-1.12-5.28-1.22ZM365.64,67.38c-.23-.78-2.88-4.03-3.96-6.1-.77-1.48-3.58-8.26-3.98-8.54-1.01-.72-3.45.7-3.83,2.01-.78,2.68,3.32,7.39,4.86,9.86,1.14,1.83,4.39,7.68,6.91,7.65-.38-1.33.39-3.59,0-4.88ZM411.84,158.88c.26,1.03-.17,2.51,0,3.66,7.81,2.11,11.81,7.45,15.84,8.54,1.87,3.54,1.43,7.63,7.93,7.34.32.98-1.29,1.04-1.33,1.2-.18.67.4,1.8-.06,2.75-.74,1.55-3.62-.05-1.26,5.79,1.12.23,2.71-.16,3.96,0-.03-.4.01-.81,0-1.22-.21-5.63,1.16-4.09,1.32-4.88.23-1.11-.25-2.6,0-3.66-2.75-1.01-4.39-6.15-5.24-6.75-1.7-1.2-4.01-.22-5.32-.57-3.66-6.95-6.53-10.61-15.84-12.2ZM26.87,176.19c-1.83-.48-20.04-2.43-14.97,2.2.38.35,10.67-2.88,10.57-.59-.52,5.6-3.75,6.82-9.26,7.91,1.08,4.21,2.01,1.73,2.64,2.44,1.49-1.78,6.63-2.91,7.58-3.97,2.93-3.29-1.82-5.37,5.62-5.79-.21-.09-.48-1.76-2.18-2.21ZM376.2,93c.21.63-.14,1.68,0,2.44,5.22,1.97,1.71,2.73,2.64,7.32.03.13,1.22,2.32,1.32,2.44,1.78,2.15,7,2.96,7.92,3.66.11.09,1.24,2.24,1.32,2.44l1.31-.62c.91-2.81-2.31-1.49-2.63-1.82-4.99-4.99-3.41-16.15-11.88-15.86ZM2.72,117.7c.94,1.33,2.19.7,2.57.92.7,4.48,2.63,3.94,2.59,4.21-1.2,9.28-1.13,9.26.05,18.97,3.39-3.51.4-9.05.26-12.81-.1-2.91,3.04-7.19-.28-9.75-.76-.58-2.14-.35-2.62-.62-.12-.77.07-1.64,0-2.44-.07-.8.15-1.73,0-2.44-.02-.08-1.35-.46-1.32-1.22-.27.26-5.35-.67-1.25,5.18ZM33.77,68.7c-2.32,1.45-1.57,2.86-2.09,3.55,2.66.07,8.13-2.44,9.9-2.44h24.42l-26.4-2.44c-1.55.53-3.68-.02-5.83,1.33ZM372.24,85.68c.04-.26,1.3-.95,1.31-1.93.03-3.12-4.45-10.3-7.91-10.27.96,3.62,2.04,12.35,6.6,12.2ZM270.6,512.69c4.6.72,8.86-.93,13.2-1.22,1.21-.08,6.33-.17,6.6,0v-1.22c-6.69.07-13.36-2.65-19.8,2.44ZM4.88,146.94c-1.44,2.57-1.32,6.89-2.23,9.5,5.79-4.89,2.33-7.68,11.88-7.32v-1.22c-3.34.3-7.75.96-6.6-2.44-.08.14-1.89-.57-3.05,1.48ZM216.48,361.03c-1.3,1.96-2.65,7.6-2.64,10.13,2.98.67,4.75-3.71,5.28-6.1.31-1.4-.21-3.35,0-4.88-.56.27-1.59-.73-2.64.85ZM64.89,236.74c1.05.84,10.87-.31,9.03-3.43-1.77.26-3.41,1.28-5.27,1.23l-.66-3.67-3.31,3.66c.16.11-.38,1.75.21,2.21ZM117.48,36.87c-.61.59-8.75-.56-10.96-.02-1.34.33-1.24,2.47-2.25,3.04-1.75,1-4.79.34-5.2.73-.34.31.41,5.72-4.03,7.24.4-.11.91.1,1.32,0,2.48-.63,4.78-.76,6.6-1.22-.1-1.15-1.87-4.45-1.33-4.87.43-.34,3.48.58,5.02-.27.71-.39.75-2.75,2.41-3.33,2.54-.89,3.74,1.04,4.46,1.16,1.21.2,2.93-.27,3.96,0,1.74-1.92,3.03-3.94,2.74-6.57-.35-1.59-5.12-1.61-5.38-1.97,1.17,3.12,3.22,2.55,2.64,6.09ZM110.88,16.13l.03,1.63c4.56,2.3,1.82,7.39,3.93,13.01-.82-1.13.59-11.97,0-14.64-1.14.2-2.68-.08-3.96,0ZM200.72,39.72c-2.11,1.59-4.96-.14-4.02,2.62.27.79,5.3,3.81.63,5.5-5.36,1.94-2.44-6.79-5.93-8.53.86,6.2,1.65,13.28,1.32,19.52h2.64c-4.45-13.01,3.12-7.18,5.12-9.92.9-1.24-.65-7.78,1.32-10.12,1.2-1.43,3.87-.1,5.13-1.01.68-.49.21-2.07.32-2.13-.96-1.76,1.28-3.47,1.32-3.66.71-3.21-2.42-2.25-2.64-2.44,1.05,2.81-3.22,8.68-5.2,10.17ZM80.52,232.08c3-.49,5.96-.67,9.24-1.22-2.42-2.02-10.75-2.56-9.24,1.22ZM217.8,33.22v1.22c3.67,1.74,4.96,1.48,7.92,2.44v-2.44c-.84-.12-1.8.11-2.64,0-1.28-.17-2.45-1.21-2.64-1.22-.87-.06-1.77.07-2.64,0ZM337.92,42.98l-1.32,3.66c2.83-.42,7.43-.09,6.6-3.66-1.67.2-3.7-.26-5.28,0ZM330,495.61h2.64c1.16-1.43,1.87-2.97,3.96-3.66v-1.22c-7.07,3.14-3.12,1.73-6.6,4.88ZM332.64,46.64c1.7.07.8.46,3.96,0l1.32-3.66c-2.76.46-4.13,1.2-5.28,3.66ZM212.52,378.48c-.04.4.06.82,0,1.22,5.66.73,1.5-4.14,1.32-6.1-2.06.86-1.18,3.3-1.32,4.88ZM208.56,32c-.04.19-2.28,1.9-1.32,3.66.42-.24,2.52.56,3.59-.33.69-.58.24-2.02.37-2.11v-1.22c-.86-.09-1.77.06-2.64,0ZM351.12,469.99v2.44c.83-.31,2.82.21,3.96,0,.03-.4.03-.82,0-1.22-.08-1.19-1.13-1.87-1.32-2.44-1.11-.03-1.92.95-2.64,1.22ZM92.4,13.69c-.54,4.79,3.96,2.43,5.28,2.44-.97-2.21-4.11-1.78-5.28-2.44ZM377.52,437.05c-2.67.41-2,3.78-3,4.62-1.09.91-4.64-.88-3.6,2.7,3.2-.64,4.15-2.1,6.6-3.66.02-.81,0-1.63,0-2.44,0-.41,0-.81,0-1.22ZM174.24,235.74c1.45-.06,3.32.38,3.96-1.22-1.14-.08-4.62-3.74-3.96,1.22ZM163.68,230.86c.05-2.89.89-4.23-2.64-3.66.96,1.68,2.55,3.44,2.64,3.66ZM372.24,86.9c-.05,2.89-.89,4.23,2.64,3.66-1.23-2.62-2.23-2.95-2.64-3.66ZM216.76,32.34c-1.05-.06-1.39.85-1.6.87.59,1.03,1.89.86,2.64,1.22v-1.22c-.26-.02-.55-.85-1.04-.87ZM347.16,42.98c-.39,3.39.19,2.15,2.64,2.44v-2.44c-.87.04-1.78-.08-2.64,0ZM163.68,235.74c.23.21,1.85-.07,2.64,0,.32-2.59.17-2.73-2.64-2.44.21.69-.29,2.17,0,2.44ZM211.2,32v1.22c.38-.27,1.92.24,2.64,0-.36-1.2-1.53-1.11-2.64-1.22ZM159.72,223.54c-.09-.11-2.21-1.04-2.64-1.22l2.64,1.22ZM27.72,77.14c-1.27,1.04-1.2,2.36-1.32,2.44l1.32-2.44ZM9.24,103.98c-.28.4-1,.73-1.32,1.22l1.32-1.22ZM59.4,232.08c.47.35.83.88,1.32,1.22l-1.32-1.22ZM79.2,232.08l-1.32,1.22c.99-.13,1.23-1.21,1.32-1.22ZM17.16,190.6c.38.45.93.78,1.32,1.22l-1.32-1.22ZM390.72,114.96h-1.32c.08.56.71,1.08,1.32,1.22v-1.22ZM29.04,75.92c.37-.45.98-.79,1.32-1.22l-1.32,1.22ZM31.68,107.64c-.1.79.03,1.64,0,2.44,6.33.35,4.32,6.63.74,8.61-5.43,3.01-10.1-.84-13.58.77-3.29,1.52-2.3,3.93-3.37,4.92-.95.88-4.37.44-4.85,2.25-.56,2.12,4.05,7.56,3.97,9.65-.02.65-4.22,0-2.47,4.66,1.56,4.18,10.78,4.08,14.68,3.28,1.09-.22,1-2.22,2.51-2.8,8.74-3.35,12.87,3.63,16.05,2.76,1.97-.54,2.58-4.3,4.82-5.4,6.39-3.13,14.52.43,17.82-10.38,3.27-.54,2,3.64,3.23,5.4,2.64,3.76,2.44-1.75,3.02-2.59.84-1.2,4.12-1.02,3.64-3.41l-5.29-.63c.73-6.54,2.22-4.55,7.92-3.65-.55-5.71.5-12.79-2.64-18.3-.05-.09-1.71.24-2.18-.38-.85-1.14-1.02-4.17-2.48-4.51-1.35-.31-3.42,2.49-6.49,2.53-1.94.02-11.13-.96-13.24-1.33-2.57-.44-3.34-2.74-5.96-2.41.42,9,.1,4.63-4.04,5.38-2.85.52-.79,2.73-6.52,3.15-1.74.13-3.53-.09-5.28,0ZM80.52,105.2c.62,6.1,1.99,13,2.64,19.52,5.98.57,8.8,7.31,15.02,3.53,7.32-4.44-2.27-13.06,11.34-17.6,2.06-.69,6.38-.38,6.64-.58,3.22-2.43-5.11-2.31-1.32-3.65-6.12-4.24-16.78-12.79-22.71-15.03-3.62-1.37-7.81-.75-11.61-.83.33,4.77-.48,9.93,0,14.64ZM64.68,75.92c.83-.03,1.2,1.19,1.32,1.22,8.89,2.27,11.73,6.33,19.79,9.78-.02,2.38-2.92.3-5.27,2.42v1.22c3.8.08,7.99-.54,11.61.83,5.93,2.24,16.59,10.79,22.71,15.03,8.66,6,10.43,7.35,17.59,14.24,3.65,3.51,8.58,6.4,14.08,5.29l-.04,6.74,7.95-.64c-2.31,6.43-.31,13.07-2.63,19.51h1.32c.44-.03.89.04,1.32,0,3.3-4.15-.45-15.36,1.9-18.38.88-1.12,8.89-2.2,12.62-6.03-2.04.65-20.25,4.23-21.12,3.65l1.33-7.31c-9.13,2.16-12.58-5.79-17.84-9.75-6.12-4.61-13.88-9.09-20.45-13.43-12.23-8.09-25.39-16.61-38.2-23.89-1.61-.92-2.53-2.88-2.72-2.95-3.43-1.25-5.12-.38-5.28,2.44ZM194.04,58.84c.16,2.42,2.27,5.75,2.03,7.93-.17,1.51-1.62,9.23-2.02,10.8-.25.96-2.69.69-2.69,1.41,0,1.34,3.52,5.43,4.42,8.15.7,2.09.64,6.84.91,7.1.57.56,11.3-.53,11.87,0-3.43-.91-6.77-2.56-10.55-2.45-.71-2.32.89-1.99,1.31-2.43s.83-.86,1.32-1.22c-.22-.25.22-1.02,0-1.22-.15-.14-1.72.43-2.69-.82-5.38-6.92.07-6.72.14-7.23.23-1.66-1.55-3.94-1.42-5.98.23-3.68,2.16-6.81,1.32-11-.5-2.51-2.56-2.84-2.63-3.03h-1.32ZM191.38,109.46c-.85.51-.89,1.36-1.3,1.84.98-.24,3.12.47,3.84-.12.57-.47-.11-1.99.12-2.32-.71.25-1.71.03-2.66.6ZM170.28,125.94c-.49.19-.93,1.09-1.32,1.22.41-.42.9-.79,1.32-1.22ZM208.56,94.22c4.66,4.39-12.32,11.38-14.52,14.64,1.15-.4,2.92-.06,4.87-.94,3.16-1.42,10.01-6.87,12.98-7.08,5.31-.36,13.91,6.56,20.44,4.35.11,1.61-.15,3.27,0,4.89h1.32c-.09-.29,1.34-4.35,0-6.09,8.87-3.5,14.19,4.02,21.95,5.96,2.5.63,1.88-.56,1.83-2.31-5.49,1-10.86-6.58-16.6-7.34-4.18-.55-7.73,2.47-11.78,2.48-4.11.01-8.38-2.77-12.55-3.69-3.65-.81-6.18,2.14-5.28-3.66-.55-.16-1.42-.9-2.64-1.22ZM170.28,125.94c7.41-2.9,15.45-9.53,19.8-14.64-9.67,2.39-13.97,8.74-19.8,14.64ZM79.25,177.85c-1.94.6-6.29.36-6.58.62-1.44,1.32,3.22,7.02-7.99,6.03-4.16,13.32,9.48,3.66,17.15,7.32.15-5.42-1.5-12.57,6.59-11l1.34-8.52c-4.88,1.73-6.75,4.38-10.51,5.55ZM79.2,105.2h-1.32c3.14,5.51,2.09,12.59,2.64,18.3.59,6.09,1.21,27.28,5.31,30.49,2.78,2.18,2.73-3.57,2.52-4.04-.69-1.55-3.3-.85-3.91-3.83-1.12-5.46-.67-15.3-1.28-21.4-.65-6.52-2.02-13.42-2.64-19.52h-1.32ZM40.92,82.02c-3.03.92-.25,12.84-1.53,16.28-1.1,2.96-8.34,3.53-9.78,5.68-1.2,1.79,2.23,6.13.19,8.63-1.96,2.55-20.09.45-24.52,1.14.15.71-.07,1.64,0,2.44h5.28c1.32,0,2.64,0,3.96,0,5.71,0,11.46,0,17.17,0,.06-2.03-.08-4.08,0-6.11.03-.8-.1-1.65,0-2.44.69-5.48.65-3.05,3.96-4.88,1.77-.98,6.59-2.85,6.69-3.18,1.12-3.7-.97-11.94-.09-16.34-.6-.05-1.18-.65-1.32-1.22ZM14.52,149.12c6.27.24,4.81,1.76,7.99,2.99,2.04.79,4.1.37,5.67.9,2.51.84,1.51,5.27,4.84,2.81-.41-5.71-4.58-4.25-8.25-5.79-3.29-1.38-3.06-3.69-8.1-3.33-1.05.07-1.86,1.18-2.15,1.2v1.22ZM50.16,157.66h35.64v-1.22h-35.64v1.22ZM33.01,144.87l7.91,4.25c1.29-1.14-5.36-9.25-7.91-4.25ZM42.24,172.29c.73-.72-4.52-7.1-2.64-9.76-6.4-1.17.06,12.29,2.64,9.76ZM40.94,161.31l1.32-4.87c2.22-.35,1.06,1.51,1.26,2.79.27,1.72,3.77.6,5.32.85.94-3.7-2.12-1.86-3.91-3.08-1.36-.93-1.16-2.81-1.39-3-3.31-2.81-2.82,5.39-2.6,7.3ZM10.56,116.18c-1.16,3.63,4.98,3.88,3.96,0-1.32,0-2.64,0-3.96,0ZM339.24,293.08c-.45-.53-1.01.95-1.32-2.44-.67-1.32-2.88-3.55-3.96-4.88-.17.35-4.47,6.01-4.82,6.21-2.13,1.22-5.81.67-8.32,1.77-2.29,1-4.04,4.6-6.99,5.73-3.8,1.47-7.09.43-10.61,1.17-4.16.88-5.87,4.92-8.46,5.6-2.34.61-5.07-.14-7.39.49-4.08,1.09-10.83,12.68-10.17,3.42-3.07.68-9.32,1.58-7.92,6.1,2.34-.07,15.34,3.04,15.84,3.68.91,1.18-2.16,3.38-2.17,4.24,0,.29,1.75,3.17,2.18,5.5.95,5.27,2.6,10.47,2.65,15.86,4.84-2.6,8.6-.9,13.19,0-.6-3.78,1.71-2.5,4.29-2.04,4.17.76,14.53,6.09,17.53,2.07.87-1.16.28-3.73,1.27-4.96.3-.38,6.61-3.98,7.27-4.84,3.13-4.09,1.7-8.78,8.91-9.45,8.03-.75,5.79,4.41,13.52,4.57.52-.48-4.46-11.42-5.45-12.64-1.69-2.07-5.69-3.2-6.24-5.26-.13-.5.88-8.94,1.14-10.15-.32-.71-.91-1.67-1.32-2.44-.35-.64-1.58-.57-2.64-3.66-.32-.94.33-2.73,0-3.66.15.18,2.15-.12,1.32,2.44.44,0,1.48,1.13,2.66.57,5.48-2.6,2.51-7.07,2.78-9.78.24-2.37,3.65-4.61,2.47-7.87-3.89.59-6.68,1.46-10.54,0,.24,4.01-.37,8.21,0,12.2.39.77.83,1.06,1.32,2.44ZM343.2,302.84c1.83,4.07.52,6.13,1.52,8.97.41,1.17,4.29,3.17,5.95,5.48,2.21,3.07,2.71,6.71,4.41,9.96,3.01-.33,4.63,3.72,7.03,3.51,1.86-.16,3.83-2.74,5.82-3.22,3.57-.86,7.43.51,10.89-.92,2.43-1,4.62-5.62,7.55-6.43,5.53-1.53,11.25,1.47,14.05,1.05.53-.08,4.38-6.08,8.79-4.97-.24-1.63-.95-3.97-1.32-6.1-4.2.95-3.93-4.73,0-3.66-.13-1.18.23-2.6,0-3.66-1.47-6.89-10.7-8.6-11.66-10-.69-1,.25-3.14-.49-4.35-.66-1.06-21.5-12.49-22.82-12.49h-21.78c-1.15,3.69.37,12.11-.26,14.97-.6,2.71-7.15,8.19-7.66,9.43-.23.57.16,1.68,0,2.44ZM350.83,333.05c-4.84-1.54-6.66-6.8-13.25-3.36-2.08,1.09-5.31,16.92-4.71,19.82,1.47,7.15,9.38,3.74,10.33,4.57.45.39-.33,9.07,0,10.99-11.55,2.3-9.31-3.35-13.21-6.71-5.47-4.72-13.48-3.1-19.94-4.8-3.36-.88-1.71-5.19-9.09-1.9l-1.31-3.67c.76,13.59.26,14.63-14.54,13.41.42,9.86-2.32,20.64,6.63,27.44,6.52-1.03,22.77,7.19,27.07,3.09,1.3-1.24,1.23-3.74,3.38-5.41,1.98-1.54,7.7-2.45,8.81-3.52.67-.64-.03-2.63,1.1-3.39,2.15-1.45,6.82-.49,8.23-1.33.75-.45.84-3.9,3.69-5.75,2.74-1.78,8.93-2.71,12.39-3.8.39-3.77.36-7.16,5.28-6.1.13-2.42,0-4.89,0-7.32,0-3.81.76-10.6-.26-13.79-.84-2.62-6.09-3.99-5.02-8.17-.97-.33-3.6.33-5.57-.29ZM344.62,449.94c-1.85,1.18-5.87.09-8.43.77s-6.52,6.33-9.69,6.74c-1.85.24-4.06-1.36-6.19-.78-2.07.57-2.57,4.08-4.89,5.34-1.68.91-4.33.7-6.15,1.63-4.45,2.29-7.08,6.05-12.84,5.11-2.31-.37-3.92-2.72-6.63-2.5-3.65.29-9.35,8.55-17.89,3.73-3.36,9.44-19.55,3.75-21.01,8.11-2.26,6.72,5.63,10.44,6.29,12.21.8,2.15.34,8.6.2,11.41,4.27.48,5.25-5.44,7.36-6.02,4.43-1.22,3.87,3.08,4.55,3.57,2.43,1.76,2.86-2.28,4.69-3.52,5.63-3.81,9.86-1.25,14.28-1.68,2.35-.23,8.37-4.73,12.33-5.49,5.67-1.09,12.13.59,17.44-3.4,2.05-1.54,3.25-5.11,5.97-6.68,4.45-2.56,9.68-.62,11.93-6.06h1.95c2.26,8.56,8.14-.54,13.22-2.44.72-.27,1.53-1.25,2.64-1.22-.12-.37.09-.83,0-1.22l-1.3-.62c.25-.63,1.09-.42,1.3-.6,2.24-1.95,1.51-1.24,2.64-3.66-5.18-1.14-3.26-1.97-3.96-4.88-5.37,1.15-5.59-2.85-1.32-4.88-.22-2,.22-4.1,0-6.1-7.93-3.4-4.04,1.57-6.49,3.13ZM297.39,400.21c-1.51.2-3.47-2.15-6.31-2.33-3.95-.25-9.31,2.47-13.88,1.34-.79,3.58,1.08,25.94.01,26.85-.44.37-7.12-.96-7.92,1.87-.64,2.28,2.35,4.07,2.66,6.15,1.02,6.8-1.16,6.72,2.04,16.31,1.44,4.32-1.02,9.41,8.48,5.54,3.81-1.55,4.12-8.23,7.52-9.02,4.33-1.01,7.89,7.48,13.24,5.13,4.41-1.94,3.24-6.06,5.68-8.27,3.91-3.53,4.44-3.69,8.46-8.03,3.13-3.39,15.31-6.49,10.65-13.33-.72-1.06-3.27-1.54-4.48-3.19-.8-1.08-3.57-7.95-4.43-8.63-1.09-.87-3.5-.47-4.35-1.52-1.29-1.59.06-4.72-.79-6-.45-.67-3.83-.77-5.11-2-1.52-1.47-1.11-4.09-1.31-4.28-1.24-1.18-8.87,3.25-10.14,3.42ZM224.4,418.75c6.66.26,5.16,3.75,6.6,8.54,4.51.23,11.33.44,13.8-3.72.84-1.42.54-3.79,1.35-4.85,1.04-1.35,16.42-2.71,17.94-.7.35.47,2.52,6.47,2.55,6.83,1.33-2.33,7.55-2.24,7.84-2.51,1.11-1-.91-19.91.05-23.55.38-1.44,3.23.02,2.66-1.99-5.57-1.96-12.32-.39-17.55-1.48-2.86-.6-4.15-3-8.13-3.47-8.26-.98-23.29,1.74-30.22.06-.42-.1-1.48-5.25-6,.73-4.27,5.66.69,4.9,2.25,7.37,2.38,3.75,3.85,11.09,5.52,15.07.48,1.16.86,2.46,1.32,3.66ZM337.89,472.44h-1.95c-2.25,5.44-7.47,3.5-11.93,6.06-2.73,1.57-3.92,5.14-5.97,6.68-5.31,4-11.77,2.31-17.44,3.4-3.96.76-9.98,5.26-12.33,5.49-4.42.43-8.64-2.13-14.28,1.68-1.83,1.24-2.26,5.28-4.69,3.52-.68-.49-.12-4.79-4.55-3.57-2.1.58-3.09,6.49-7.36,6.02-.08,1.79.34,3.48-1.32,4.88.51,1.34.27,2.8,1.32,4.88,3.53-.57,2.69.77,2.64,3.66.97.26,2.72-.13,3.96,0h1.32c1.06-.17,2.26.39,3.58-.33.76-.42,1.09-1.62,1.7-2.11,6.44-5.09,13.11-2.37,19.8-2.44.88,0,1.76,0,2.64,0l23.76-6.1c4.66-2.52,9.32-5.02,13.2-8.54,3.48-3.15-.47-1.74,6.6-4.88.86-.38,7.25-9.84,9.24-12.2-.23-1.4.11-1.76,1.32-2.44.3-.17,1.56.42,2.31-.3.68-.65.22-2.82,1.65-3.36v-2.44c-5.08,1.9-10.96,11.01-13.22,2.45ZM409.61,374.92c-2.54.48-6.26-2.04-8.82-1.24-2.56.8-1.66,5.03-4.29,5.87s-6.82-.19-9.74.15c-.04.38-3.3,5.16-4.01,6.69-.65,1.4-1.16,5.19-1.41,5.38-.51.4-5.77.38-6.34-.06-.66-.52.18-2.99-.12-3.47-.07-.11-2.24.53-2.66-.84-.47-1.52.46-4.54.02-5.26-.06-.09-1.78.29-2.24-.4-.72-1.08.11-3.01-1.16-3.34-.73-.19-5.62-.1-5.82.1-.23.23-1.34,5.78-1.34,6.09-.06,6.53,3.79,16.91,2.57,23.73-.65,3.66-6.23,11.68-7.94,15.94-1,2.5-.04,5.4-1.29,8.19-.41.91-2.52.94-2.62,1.74-.35,2.78,2.87,9.13,1.3,13.04l5.34,2.03c.07-.26,1-.72,1.32-1.22,2.37-3.77,2.77-2.89,6.6-3.66,1.17-.23,2.79.23,3.96,0-1.05-3.58,2.5-1.79,3.6-2.7,1.01-.84.33-4.21,3-4.62.05-3.13.27-6.7,0-9.76-3.97-4.75-9.04-12.86-5.25-18.64.87-1.33,2.21-.66,2.61-.88.23-1.94-.2-2.87,2.64-2.44.28-.44.97-.78,1.32-1.22.15-.19-.39-1.25.92-2.48,1.74-1.63,5.77-3.95,8.32-3.62,4.93-5.28,2.75-5.49,10.56-8.54-.44-2.83.44-3.37,2.64-1.22,1.1-.43,3.09-.26,5.28-1.22-.62-3.26.84-2.49,3.96-2.44.52-.34.86-.84,1.32-1.22,1.87-4.67,2.17-7.44,2.64-12.2-3.24-.68-3.52,3.5-4.86,3.75ZM336.1,381.02c-2.39.81-1.52,3.57-2.46,4.47-.68.65-4.2.9-6.23,2.18-5.16,3.26-5.26,9.7-13.26,7.9,2.91,3.19-1.62,2.11-1.31,3.03,3.8,1.52,3.22,7.73,4.24,8.89.58.66,5.38,1.11,7.19,3.12,5.29,5.88.87,8.23,13.67,12.37,24.13,7.8,15.94-10.79,20.56-22.43,1.03-2.6,6.05-7.43,2.94-12.11-.72-1.08-22.74-8.31-25.35-7.42ZM289.81,466.25c2.71-.22,4.32,2.13,6.63,2.5,5.76.93,8.38-2.82,12.84-5.11,1.82-.94,4.48-.72,6.15-1.63,2.32-1.26,2.82-4.77,4.89-5.34,2.12-.58,4.34,1.02,6.19.78,3.17-.41,7.2-6.08,9.69-6.74s6.58.41,8.43-.77c2.45-1.56-1.43-6.53,6.49-3.13-.26-2.39-.76-16.39-1.41-17.01-.39-.37-10.08-2.57-10.84-2.36-1.45.42-2.38,2.2-3.71,2.79-9.79,4.26-19.35,12.13-26.29,20.88-1.02,1.28-1.13,3.73-1.5,4.03-1.2,1-13.88-1.28-19.51.92-3.05,1.2-5.88,5.56-6.7,5.94-2.73,1.27-7.52.19-9.17,4.05-.54,1.27.23,3.09-.07,3.92,8.54,4.82,14.24-3.44,17.89-3.73ZM400.41,321.23c-2.8.42-8.52-2.58-14.05-1.05-2.93.81-5.12,5.43-7.55,6.43-3.46,1.43-7.32.05-10.89.92-1.99.48-3.95,3.06-5.82,3.22-2.41.21-4.02-3.84-7.03-3.51.99,1.89,4.86,7,6.89,7.7,4.08,1.41,9.41-.12,12.37,1.95,4.29,2.99.11,10.87,9.19,12.24,4.27.65,25.69-.5,28.75-2.27,1.67-.97,1.76-3.38,2.2-4.98-2.41-7.18-2.72-9.79-3.96-17.08l-1.31-.62,1.31-1.82c-.36-2.28-1.1-4.63-1.32-6.1-4.41-1.11-8.25,4.89-8.79,4.97ZM367,350.98c.32,1.88,2.88,3.71,2.59,4.87-.47,1.91-5.64.46-5.4,8.71.11,3.75,2.05,1.93,2.77,5.39,3.84.4,7.08-1.2,8.7,3.63,1.35,4.03-2.1,10.09-.78,14.67,5.59,1.14,1-5.83,1.3-6.09.52-.43,5.15.44,6.36-3.3.61-1.88.68-7.33.22-9.28-.16-.69-3.01-1.71-4.01-3.77-.56-1.15-3.6-9.48-3.67-10.13-.27-2.39,3.83-3.26,3.58-5.66-.16-1.54-8.72-15.9-11.7-13.02-1.86,1.81,6.44,8.33,0,7.31.37,1.96-.34,4.43.04,6.65ZM362.6,369.09c-4.43.72-12.27,6.3-18.09,5.74-.51,7.82,10.39,8.5,17.17,9.75,0-.31,1.11-5.86,1.34-6.09.2-.2,5.09-.29,5.82-.1,1.26.33.43,2.26,1.16,3.34.46.69,2.19.31,2.24.4,3.75-12.39-2.44-8-5.29-9.76-.25-.15.12-1.88,0-2.44-1.36-.14-2.72-1.12-4.36-.85ZM324.05,340.62c-.99,1.23-.4,3.79-1.27,4.96-3,4.02-13.35-1.32-17.53-2.07-2.58-.47-4.89-1.75-4.29,2.04.12.02.92.84,2.06,1.17,1.61.48,4.53-.49,5.69.2,1.92,1.13-1.83,6.38,8.68,4.66,2.77-.45,3.52-3.03,7-1.56,1.79.76,3.24,7.32,8.24,6.5.01-2.81-2.57-3.48-2.76-6.69-.24-3.98,2.74-9.44,1.45-14.05-.66.86-6.97,4.46-7.27,4.84ZM244.2,310.16c-.89,3.41,2.06,13.77,5.26,15.27,3.85,1.81,12.21-1.5,17.18.6-.94-12.97,6.66-4.34,14.52-4.88-2.24,3.94.46,5.24,1.32,8.53h2.64c-.42-2.33-2.18-5.21-2.18-5.5.01-.87,3.09-3.06,2.17-4.24-.49-.64-13.5-3.75-15.84-3.68-8.1.24-4.16,4.97-5.29,6.11-.78.78-4.67-1.31-5.84-1.27-.87.03.03,3.83-5.09,2.25-7.6-2.34-5.2-13.07-6.23-14.41-.12-.16-1.86.04-2.63,0v1.22ZM361.41,341.52c1.02,3.18.27,9.98.26,13.79,8.51,1.78,1.48-10.71,2.65-12.21.91.27,1.75,1.09,2.63,1.23-1.18-6.27-4.1-8.76-10.56-10.98-1.07,4.18,4.18,5.55,5.02,8.17ZM288,394.02c-2.21.66-3.48-.55-2.87,2.76,6.07-.78,15.24,2.62,18.47-3.64-5.31-1.41-10.4-.69-15.6.88ZM356.4,368.72c1.67-.52,3.54-.54,5.09-1.42.59-1.52.11-3.13.19-4.68-4.92-1.06-4.89,2.33-5.28,6.1ZM351.12,452.91c-4.27,2.03-4.05,6.03,1.32,4.88-.28-1.17-1.29-4.61-1.32-4.88ZM212.52,382.15c-.04.47-1.97,1.96-1.4,4.2.25,1.36,2.04.43,2.72.68l-1.32-4.88ZM179.52,29.56c-8.39,1.16-13.98.46-20.36,1.26-1.69.21-15.19,3.55-12.65,6.06l3.96,2.43c-7.32,3.04-12.09,4.45-20.38,3.62-3.95-.39-5.77-.91-10.45-1.21-1.05-.07-1.66-2.25-2.16-2.39-1.03-.27-2.75.2-3.96,0,.88,5.72-1.43,2.72-4.25,3.7-1.42.49-1.27,2.35-6.31,3.62.85,10.24-6.21,6.56-13.51,8.86-3.68,1.16-16.81,6.88-17.93,10.22-.81,2.43.75,5.64-1.55,7.75.19.07,1.11,2.03,2.72,2.95,12.81,7.28,25.97,15.8,38.2,23.89,3.95-7.17-9.57-10.87-9.23-11.58,2.02-4.24,7.81-2.19,10.56-3.66,1.47-.79,1.9-3.92,3.96-4.88,1.94-.9,4.65-.33,6.59-1.23,2.05-.95,2.46-4.03,3.97-4.87,3.24-1.83,11.21.32,15.92-1.14,3.71-1.15,3.79-5.14,7.2-5.65,4.5-.67,7.95,3.74,12.91,2.33,2.82-.8,3.07-4.11,4.95-5.24,3.68-2.22,6.3-2.41,11.92-6.06,8.31-5.39,7.36.02,8.99,3.07-.64-.59-1.67-.59-2.31,0s-.64,1.54,0,2.13c.64.59,1.67.59,2.31,0s.64-1.54,0-2.13c3.68,5.74,3.86,1.88,4.1-2.57.33-6.24-.46-13.32-1.32-19.52-.06-.42.1-.87,0-1.22l-1.32-1.22c-.38-.14-.96.15-1.32,0-1.76-.72-4.6-.49-5.96-2.46-1.16-1.69-.35-3.39-.64-4.86-.85,0-1.84-.11-2.64,0ZM72.35,56.8c-.3.16-5.52,3.56-4.34,4.49,7.67-2.29,13.45-8.8,22.15-7.32l6.21-6.12c-.41.1-.92-.11-1.32,0-5.25,1.51-17.63,6.3-22.7,8.95ZM64.68,75.92c-.11,2.02.09,4.08-.01,6.1-5.52.3-19.71-1.22-23.75,0,.14.57.72,1.17,1.32,1.22,5.19.46,18.16.72,23,.02,1.66-.24.4-4.65.76-6.12-.12-.03-.49-1.25-1.32-1.22ZM365.64,111.3c5.77.65,7.66-7.18,13.2-8.54-.93-4.59,2.58-5.35-2.64-7.32-7.59-2.86-5.92-6.37-10.25-9.77-6.12-4.8-6.41-.66-11.08.43-6,1.39-11.94,1.96-17.9,4.19-2.04.76-3.34,3.16-5.26,3.68-4.39,1.19-11.07-.95-14.92.85-.43.2-6.45,5.95-6.6,6.37-1.81,5.02,5.04,3.78,3.98,8.91,17.33.46,34.43-.71,51.48,1.22ZM302.24,47.77c-.06.12-1.58.56-2.6,1.3,4.62,12.52,2.3,26.99,2.64,40.26.05,2.03-.04,4.07,0,6.1.02,1.22-.03,2.44,0,3.66.13,4.85,1.05,8.86,1.32,13.42h2.64c16.77,0,44.18-2.07,59.4,1.22v-2.44c-17.05-1.93-34.15-.76-51.48-1.22-3.07-.08-6.17.07-9.24,0,1.66-4.74.06-8.47-.06-12.76-.47-17.16-.14-33.43-1.26-50.68-.07-1.02.39-3.02-.12-3.56-.47-.5-2.03.1-2.52-.1.11,1.3,1.74,3.84,1.28,4.8ZM351.12,45.42c.87,1.92,5.73,1.92,6.6,0-2.19-.06-4.42.12-6.6,0ZM297.26,49.37c-.68.77.4,3.19-1,3.45-3.8.71-12.82-1.49-4.51,4.18.09,8.72-24.52-1.89-28.43,4.29-1.4,2.21.68,7.54-4.62,4.21-.78-.49-.82-2.72-2.24-3.05-3.58-.84-22.55,5.02-24.22,6.95-4.16,4.81,5.36,5,2.68,8.9-.31.45-9.75,2.27-11.34,2.39-1.88.14-5.23-1.47-5.77-1.12-.8.51-1.1,7.01-1.39,7.27-2.02,1.83-12.99-3.47-15.78.06.22.2-.22.97,0,1.22.06.07,1.54-.15,1.32,1.21h-2.64c-.42.45-2.02.12-1.31,2.45,3.78-.12,7.12,1.54,10.55,2.45,1.22.32,2.09,1.06,2.64,1.22,3.29.93,6.26-2.3,5.28,3.66,4.17.92,8.44,3.7,12.55,3.69,4.06-.01,7.6-3.03,11.78-2.48,5.74.75,11.12,8.34,16.6,7.34.06,1.74.67,2.93-1.83,2.31-7.76-1.94-13.08-9.46-21.95-5.96,1.35,1.74-.09,5.8,0,6.09,2.03,6.55,5.56,4.21,5.28,14.64-.04,1.62.14,3.28,0,4.88,3.28.85,2.81-2.99,4.79-3.57,2.29-.67,6.62,1.64,7.08,1.14,1.82-1.98-2.47-9.1,12.28-5.85,3.38.74,7.35,6.43,10.16.34,1.09-2.38-3.77-1.38-2.63-4.25-2.91-1.42-12.54-5.32-11.21-8.55,5.74,2.39,10.95,5.96,16.49,8.55,2.01.94,4.41.82,5.28,1.22,2.65-2.79,1.38-15.24,1.88-15.9.57-.74,16.47-3.88,19.24-3.62-.03-1.22.02-2.44,0-3.66-7.48,1.09-5.08-1.79-5.27-7.32l5.27,1.22c-.34-13.28,1.98-27.74-2.64-40.26-.23.16-1.67-.5-2.38.29ZM299.65,66.15v-8.53h1.29v8.53h-1.29ZM179.63,58.33c-5.62,3.65-8.24,3.84-11.92,6.06-1.88,1.13-2.14,4.44-4.95,5.24-4.95,1.41-8.41-3-12.91-2.33-3.42.51-3.5,4.5-7.2,5.65-4.72,1.46-12.69-.69-15.92,1.14-1.5.85-1.91,3.92-3.97,4.87-1.94.9-4.65.33-6.59,1.23-2.07.96-2.49,4.09-3.96,4.88-2.75,1.47-8.54-.58-10.56,3.66-.34.72,13.18,4.41,9.23,11.58,6.57,4.35,14.33,8.82,20.45,13.43,5.25,3.96,8.71,11.91,17.84,9.75l-1.33,7.31c.87.58,19.08-3,21.12-3.65.39-.13.83-1.03,1.32-1.22,5.83-5.9,10.13-12.25,19.8-14.64.41-.48.45-1.33,1.3-1.84.95-.57,1.95-.36,2.66-.6,2.2-3.26,19.18-10.25,14.52-14.64-.57-.54-11.3.55-11.87,0-.27-.26-.21-5-.91-7.1-.9-2.72-4.42-6.81-4.42-8.15,0-.71,2.44-.44,2.69-1.41.4-1.57,1.85-9.3,2.02-10.8.24-2.17-1.86-5.51-2.03-7.93h-1.32c-.24,4.44-.42,8.3-4.1,2.57.64.59.64,1.54,0,2.13s-1.67.59-2.31,0c-.64-.59-.64-1.54,0-2.13s1.67-.59,2.31,0c-1.63-3.05-.69-8.47-8.99-3.07ZM193.92,111.17c-.72.6-2.86-.12-3.84.12-4.35,5.11-12.39,11.74-19.8,14.64-.42.43-.91.8-1.32,1.22-3.73,3.83-11.74,4.9-12.62,6.03-2.35,3.01,1.4,14.22-1.9,18.38,3.66-.37,4.64-1.78,7.33-2.38,2.31-.52,5.27.42,7.65-.25,3.51-.99,3.19-6.86,3.51-7.13.81-.68,5,1.5,6.99,1.05,2.09-.47,5.99-5.77,9.83-6.83,4.5-1.25,11.77-.77,16.54-1.79,3.55-.76,10.75-2.64,14.55-3.64,3.65-.96,8.58-9.52,15.44-7.08-.73-4.82-3.46-7.74-3.96-13.42-.14-1.61.12-3.27,0-4.89-6.53,2.2-15.14-4.72-20.44-4.35-2.97.2-9.82,5.66-12.98,7.08-1.95.88-3.71.54-4.87.94-.22.33.45,1.85-.12,2.32ZM181.51,22.26c-2.58,1.69-2.11,4.7-1.99,7.3.8-.11,1.79,0,2.64,0,.29,1.46-.52,3.17.64,4.86,1.36,1.97,4.2,1.74,5.96,2.46l-.04-1.62c-5.74-2.71,1.1-5.64-6.56-5.7-.53-2.69-1.39-4.3-.65-7.3ZM188.75,12.48c-.72-1.48-3.34,4.19-2.62,4.87h2.63s0-4.87,0-4.87ZM190.08,36.88l1.32,1.22c-.28-.93-.45-.9-1.32-1.22ZM92,195.24c2.79.3,6.06-1.19,9.64-.98-.48-1.7.79-2.57,1.32-3.66.27-.57-.81-2.13.83-2.49,3.14-.7,8.99.39,12.97,0,3.79-.37,5.6-.9,10.57-1.2,1.29-.08,12.31-3.56,12.59-4.25.43-1.03-2.19,0-2.63-1.49-.34-1.16.41-3.43-.07-3.91-.45-.46-3.84.29-5.28-.6-1.69-1.04-.7-3.93-1.58-5.27-.57-.88-3.42-1.09-4.32-2.7-1.77-3.19,1.7-9-5.26-8.48-.44.03-8.07,2.29-8.38,2.58-.7.65.5,3.24-.9,3.5-2.18.41-6.83-.84-8.35.07-.97.58-.81,6.69-4.97,8.22-4.27,1.57-1.97-2.08-4.42-2.27-1.22,2.29-.74,6.83-1.98,8.55-1.27,1.77-7.07,2.14-7.29,2.44-.1.13,1.11,1.82,1.03,3.01-.42,6.15-.07,2.25,1.61,6.74,1.34.18,3.16,2.01,4.88,2.2ZM92,195.24c-1.72-.18-3.54-2.01-4.88-2.2.32.84-.38,2.58.57,3.7,2.81,3.31,12.27-1.12,16.59-.04.37-3.16-.04-2.28-2.64-2.43-3.59-.21-6.85,1.27-9.64.98ZM217.8,308.94c.02.41-.02.81,0,1.22h26.4v-1.22c-8.74-.41-17.65.3-26.4,0ZM377.37,124.58c-1.08.87-8.08-.54-10.86.34-2.47.77-3.67,6.11-7.11,6.95s-8.44-2.12-13.9-.75c-4.17,1.05-15.56,8.07-19.1,9.18-2.9.92-6.77.05-10.01,1.73-4.45,2.31-8.32,11.62-18.07,9.53-.21,9.43-3.53,2.6-6.42,5.07-.47.4-.15,2.52-.93,3.33-1.32,1.36-3.79,1.88-4.34,3.37-.2.53-1.51,10.71-1.3,11.24.08.2,3.48,1.03,3.74,2.61.24-.63,1.63-1.32,1.34-2.43h1.28c-.09.82-.24,2.23.86,2.49,3.92.92,18.17-5.26,23.64-6.1,10.48-1.59,11.33,3.88,13.89-9.74,3.31-1.42,6.19,2.22,8.48,2.31,2.76.11,4.63-2.74,6.92-3.33,5.75-1.47,13.13-1.56,19.17-4.24,3.02-1.34,9.57-7.71,11.02-7.98,4.15-.76,10.41,3.22,11.07,7.04,4.73-1.53,1.49-7.48,2.85-9.57,4.22-.14,7.26-4.72,10.35-5.07-3.55-6.1-7.87-9.76-9.24-17.08-16.5-10.14-10.02-1.59-13.35,1.08ZM378.84,102.76c-5.54,1.36-7.43,9.19-13.2,8.54v2.44c3.72.81,4.71,2.73,5.29-3.65l2.61,2.42c.96-3.38,2.67-6.47,6.62-7.31-.1-.12-1.29-2.31-1.32-2.44ZM303.6,112.52c.12,2.02.42,11.73-.06,12.15-.56.49-4.55-.62-5.22,1.27,1.01,0,1.43.24,1.32,1.22,10.08,1.48,5.83-8.42,6.6-14.64h-2.64ZM286.41,133.7c-3.34.85-3.98,4.78-6.13,5.45-2.1.66-5.28-.39-7.14.76-1.37.85-.35,3.72-2.82,4.74-3.29,1.37-12.26,1.28-17.17,2.38-3.9.87-8.48,3.55-12.34,4.47-2.48.59-1.82.02-1.57-1.54.46-2.79-.38-3.65-.34-4.5h-1.32c-1.33,6.1-8,6.51-10.42,10.5-2,3.31-.78,5.49-1.51,8.16-.3,1.08-2.66.46-2.75,2.65-.1,2.2,2.56,8.4,4.06,9.86,1.98,1.92,4.97,1.3,6.42,3.83,1.26,2.21,1.14,6.76,1.68,9.42.68,3.33,4.47,4.14-.11,8.04.7.13,5.52,1.99,6.03,2.35,1.69,1.21,1.07,3.89,3.19,3.74-.44-1.8,1.84-9,2.87-9.55,1.42-.75,4.6.22,6.72-.49,2.45-.81,3.86-3.03,7.03-3.38,3.31-.36,6.82,1.52,8.89,1.05,3.87-.87,8.06-13.5,15.42-12.03-2.38-4.85-2.78-12.14-1.08-17.46,1.13-3.51,5.54-2.76,6.18-3.45.87-.95-.28-4.26.17-4.72.42-.43,4.82.44,5.3.02.72-.63-.13-15.28-.01-18.31-3.56,1.17-6.41-2.72-9.27-1.99ZM162.89,217.53c3.06-6.56,3.27-.34,4.67.57,4.31,2.77,10.8-6.28,14.1-7.84,2.9-1.37,5.4-.83,7.53-1.63,2.11-.79,2.4-4.34,5.73-4.41,2.8-.06,3.6,3.5,6.15,3.29,2.53-.21,5.42-4.62,7.31-3.27.18.13,0,3.99,2.79,2.17.4-.26-1.04-3.56,2.66-2.39-.38,2.07-1.12,3.97-1.32,6.09,2.79-2.71,3.66-7.06,5.39-10,2.85-4.82,3.77-8.22,5.84-11.94,1.14-2.05,4.95-2.47,5.81-4.4,1.56-3.5-2.2-2.88-3.84-4.72-1.61-1.79-3.66-6.53-3.99-6.76-.36-.25-4.7,2.71-8.54,2.53s-6.19-2.94-10.45-2.54c-5.2.49-8.54,7.24-15.28,4.27-1.69-.74-3.05-3.79-4.83-4.1-1.98-.34-4.14,2.56-7.43,2.09-3.81-.55-5.5-4.85-12.1-4.75-1.13.02-8.17,1.16-8.47,1.45-.35.34-2.65,7.83-2.85,8.95-.97,5.24.92,14.51.07,18.02-.24,1.01-6.12,4.19-6.56,5.48-1.3,3.77-.45,8.65-.08,12.5l17.69,1.31ZM220.84,156.79c-3.13,1.82-6.3,9.16-8.33,10.08-3.37,1.54-12.62-5.14-10.55,4.21,5.17-.24,13.72,2.85,17.2-.58,1.36-1.34,3.77-11.4,5.24-14.06-.4.22-2.16-.46-3.55.35ZM228.37,197.93c-.46,2.03.75,2.85,2.63,3.65.07-.49,2.02-2.18,1.32-3.66-1.32-.02-2.64,0-3.95,0ZM220.84,130.58c-3.79,1-10.99,2.88-14.55,3.64-4.77,1.02-12.04.54-16.54,1.79-3.85,1.07-7.75,6.36-9.83,6.83-2,.45-6.18-1.73-6.99-1.05-.32.27,0,6.14-3.51,7.13-2.38.67-5.33-.27-7.65.25-2.69.6-3.66,2.01-7.33,2.38-.43.04-.88-.03-1.32,0,1.83,8.85-10.61,6.3-16.41,7.4-1.04.2-8.29,2.12-8.61,2.42-.42.39-.18,4.17.18,5.21.96,2.72,4.22,2.68,4.77,3.54.86,1.36-.13,4.21.26,4.61.48.49,7.35-.49,7.91,0,.74.65-2.53,5.03.67,6.09,1.43-4.99,3.73-1.34,6.61,1.2-.02-8.63,3.41-13.94,13.53-14.3,8.16-.29,11.58,3.89,14.36,4.4,1.91.34,3.87-2.22,6.21-2.04,2.56.2,5.71,4.18,8.33,4.41,2.22.19,5.62-3.17,11.01-3.42-2.07-9.34,7.18-2.67,10.55-4.21,2.03-.93,5.2-8.26,8.33-10.08,1.4-.81,3.15-.13,3.55-.35,2.07-1.15,9.8-9.03,10.3-10.61.9-2.82,1.84-17.62,1.58-21.11-.03-.4.06-.83,0-1.22-6.85-2.44-11.79,6.12-15.44,7.08ZM196.71,168.04l1.97-1.82c1.33,1.09-1.99,3.1-1.97,1.82ZM229.68,427.29h1.32c-1.44-4.79.06-8.28-6.6-8.54,1.15,2.97,5.02,7.56,5.28,8.54ZM230.97,437.66l-1.29-.61c.01.41-.01.81,0,1.22l1.29-.61ZM456.22,230.45c-.54.56-1.93.25-2.15.41-.15.12.64,2.12-.87,2.46-7.48,1.72-13.28,1.25-20.98,6.01-.79.49-6.09,7.8-6.46,8.67-1.59,3.69-1.8,26.23,1.92,28,.18.09,1,.06,1.32,0l-1.29-4.28,5.25.62c15.43-15.86,35.32-26.74,46.2-45.14v-7.31c-3.81-.29-7.8,2.64-10.56-1.23-5.05,4.59-7.55,6.81-12.37,11.79ZM231,277.22c0,.4.06.83,0,1.22,3.51-.48,8.74.69,11.88,0,.53-.12,8.85-5.2,9.03-5.68,3.17-8.16,1.56-21.14,6.81-29.69-14.9-4.13-11.8,4.94-17.93,13.31-6.62-1.9-13.26-4.28-20.36-3.56v3.65c4.96-.37,10.75-.38,10.55,5.4-.05,1.32-1.29,2.66-1.3,3.15-.08,4.6,1.29,8.41,1.32,12.2ZM194.05,235.75c-.95,1.71.83,3.26,1.29,2.43.95-1.71-.83-3.26-1.29-2.43ZM341.98,254.76c-1.21,1.67-4.21,2.28-4.99,3.3-3.13,4.15.82,8.27-8.7,12.1-7.64,3.08-13.3,1.07-20.02,2.23-.67.11-11.98,3.94-12.58,4.23-2.2,1.04-2.53,4.59-4.84,5.29-5.79,1.77-9.38-2.55-15.02,4.46-1.04,1.3-1.07,3.76-1.46,4.08-.99.83-7.88-.33-10.76.44-2.22.59-3.74,3.65-7.15,4.37-1.58.34-9.3.58-9.64.26-.7-.66,1.47-5.16-1.3-4.88l-1.34,10.97-5.27-2.43c-.31.25-6.82,3.71-7.24,3.7-1.89-.03-3.47-2.64-5.12-2.38-1.08.17-2.21,2.24-3.58,2.86-1.76.8-4.84.66-5.93,1.84-1.8,1.95.75,3.47.76,3.73,8.75.3,17.66-.41,26.4,0,.77.04,2.51-.16,2.63,0,1.03,1.35-1.37,12.07,6.23,14.41,5.12,1.58,4.22-2.22,5.09-2.25,1.17-.04,5.06,2.06,5.84,1.27,1.13-1.14-2.81-5.87,5.29-6.11-1.41-4.52,4.84-5.42,7.92-6.1-.67,9.26,6.09-2.32,10.17-3.42,2.32-.62,5.05.13,7.39-.49,2.59-.68,4.3-4.72,8.46-5.6,3.52-.74,6.81.29,10.61-1.17,2.95-1.14,4.7-4.73,6.99-5.73,2.51-1.1,6.19-.56,8.32-1.77.35-.2,4.65-5.87,4.82-6.21,1.43-2.82,2.69-12.56,4.64-13.41,3.08-1.34,1.56,3.3,1.96,3.65.99.86,8.46-3.08,11.41-3.23,4.55-.23,15.99,3.12,18.95,1.43,5.18-2.96-.18-7.75.18-9.62s9.04-8.29,9.11-8.9c.65-5.56-6.94-9.34-6.77-14.95-8.07.33-14.95,3.76-23.65,2.32.69,7.99.59,16.86-9.23,19.52,1.77-7.24,6.8-6.05,6.59-14.63-6.4-1.18-2.67,3.35-5.18,6.82ZM246.85,297.97c.46-.83,2.24.71,1.29,2.43-.46.83-2.24-.71-1.29-2.43ZM343.2,239.4c-2.05,3.21-6.08,1.7-8.88,2.8-.46.18-4.05,4.92-6.62,5.55-2.85.69-6.38-1.39-10.11-1.02-8.91.89-13.07,7.87-14.88,8.41-2.88.85-7.91-2.22-12.7-.86-2.33.66-11.49,8.45-15.5,10.08-2.5,1.01-5.34.3-7.84,1.29-1.99.79-4.2,4.78-5.98,5.46-4.91,1.86,1.1-6.52.62-7.25-.12-.19-3.57-.61-3.91-2.5-.88,3.87-1.32,9.46-2.94,12.53-2.21,4.19-9.21,6-10.89,9.46-1.8,3.69.32,8.17-.9,11.4-.52,1.37-2.39,1.54-3.27,2.45-.65.67-.35,1.89-.47,1.99l5.27,2.43,1.34-10.97c2.77-.28.6,4.23,1.3,4.88.34.32,8.05.07,9.64-.26,3.41-.72,4.92-3.78,7.15-4.37,2.88-.77,9.78.39,10.76-.44.39-.33.41-2.79,1.46-4.08,5.64-7.01,9.23-2.7,15.02-4.46,2.3-.7,2.64-4.25,4.84-5.29.6-.29,11.92-4.12,12.58-4.23,6.72-1.15,12.38.85,20.02-2.23,9.52-3.83,5.57-7.96,8.7-12.1.77-1.02,3.78-1.64,4.99-3.3,2.51-3.47-1.23-8,5.18-6.82-.15-6.11-1.08-4.86-3.96-8.54ZM192.73,227.21c-.95,1.71.83,3.26,1.29,2.43.95-1.71-.83-3.26-1.29-2.43ZM221.1,223.54c.86-.41.86-.81,0-1.22v1.22ZM440.22,437.05c.86-.41.86-.81,0-1.22v1.22ZM412.65,260.07c-1.17.3-1.19,5.29-4.81,6.76-.89.36-12.77,3.76-14.12,4.03-2.42.48-8.99-.09-9.54.39-.31.27-.33,8.48-4.03,1.1l-5.27,2.43c3.68-.83,3.93,1.84,6.34,3.26,4.86,2.87,14.2,6.04,17.92,9.09,5.24,4.3,2.16,10.46,14.01,7.18.23-.06,2.55-1.68,3.96-2.44-.1-1.53-.35-3.82.02-5.16s1.83-1.44,2.62-2.16c-.09-1.25.42-1.68,1.32-2.44,1.35-1.14,1.85-.82,2.64-1.22l-1.32-20.74c-2.83.47-7.36-.68-9.75-.08ZM427.71,271.72l1.29,4.28c2.17-.38,2.81-2.48,3.96-3.66l-5.25-.62ZM421.08,282.1c-.9.76-1.41,1.19-1.32,2.44.85-.77,1.46-1.16,1.32-2.44ZM356.4,204.02c-7.64,2.67-10.02-1.47-10.49-1.17-.1.06.16,1.45-.58,1.92-.91.58-2.18.41-2.94.89-2.24,1.43-.57,3.45-6.47,3.39-3.75-.04-5.17-2.01-6.8-2.22-1.98-.26-4.2,1.37-6.22.79-2.87-.83-1.1-7.45-7.91-6.06-.87.18-.87,1.83-1.28,2.03-1.02.5-2.12.36-2.2.42-.6,2.34-3.46,9.68-2.53,10.88.47.61,5.07.76,6.5,1.92,1.9,1.54.94,5.23,3.15,6.85,4.11,3.01,5.41-2.14,6.08,4.74,11.78-5.83,8.02.01,9.31,1.12,2.78,2.38,15.85-4.8,19.38-5.71,2.7-.7,17.83-1.96,18.83-2.73l1.32-4.87c-.92-1.02-1.15-3.54-1.32-3.66-2.92-2.02-10.29,2.04-7.93-7.32,15.23.43,5.77-2.35,3.81-6.54-1.14-2.45-1.21-5.46-1.17-8.1h-3.95c.93,3.16-.63,5.08-1.32,7.33-1.41,4.61.36,4.12-5.28,6.1ZM397.32,164.98c.82,5.16-4.04-.17-6.67,1.72-1.88,1.35-2.81,15.22-12.45,15.38-1.21.03-.64-1.61-.68-2.46-.05-1.21.02-2.44,0-3.65l3.95,1.21c.46-.37.89-.82,1.32-1.22s.81-.88,1.32-1.22c.48-1.11.42-2.54,1.32-3.66-3.88-1.07-5.92,3.73-8.55,3.69-1.67-.03-3.36-2.13-5.41-2.46-7.57-1.25-9.96,5.32-15,6.78-5.71,1.65-12.23,3.06-18.51,4.86-1.58.45-3.75-.75-5.3-.08-3.9,1.7-1.85,6.32-2.86,7.78-.64.93-5.11.97-6.74,1.5-1.13.37-.98,2.15-1.58,2.16-2.2.05-8.48-2.49-10.53-2.05-2.98.64-3.59,11.54-12.65,5.89-.18.68-3.2,2.29-2.65,4.25.41,1.47,3.75,1.43,4.83,2.28,1.1.86,4.97,6.7,7.13,3.72,1.58-2.18.68-2.72,3.88-5.36,1.3-5.06,3.5-7.28,9.65-3.72,4.82,2.79,1.43,2,9.12,4.06,1.48.4,2.69,1.77,4.48,2.11,2.88.55,8.94-6.13,11.71-6.14,2.21,0,7.38,5.33,9.93,3.69.15-.09.21-2.05,1.28-3.06,1.05-1,3.91-2.82,4-3.04,1.59-3.61-4.67-7.36-1.36-9.19,1.29-.72,7.56-.93,7.95-.56.65.62-1.13,9.87,3.96,8.52-2.21-11.66,4.8-5.7,6.61-7.31.75-.66-1.58-6.18,1.3-6.1,0,5.32,1.49,14.22-5.25,8.54-2.15,5.69-.29,10.17,0,15.86h-7.92c.41,2.5,3.46,1.78,4.91,2.83.67.49.22,1.92.37,2.06.31.27,2.19.11,3.23,1.24,2.03,2.21,2.25,6.16,6.01,7.3-.74-7.17,5.39-7.66,10.93-10.03,2.04-.88,2.89-2.86,5.59-3.36,10.56-1.95,10.83,4.44,21.62-4.43,2.27-1.86,3.14-4.88,6.27-6.44,1.71-.86,6.62-1.43,8.39-1.36-.01-1.71.68-4.39-1.32-4.88-1.02,7.58-.34,1.46-1.32,0-.12-.17-3.08.03-3.81-1.96-1.28-3.52,1.73-6.59.2-11.07-1.71-5-11.27-12.23-17-12.55-3.86-.22-7.61.24-12.38-.03-.44-.03-.89.05-1.32,0ZM299.64,204.01c-.9-.42.77-2.07,2.63-1.2.9.42-.77,2.07-2.63,1.2ZM389.61,145.65c-1.35,2.09,1.88,8.04-2.85,9.57.15.87-1.19,2.67-.92,4.06.67,3.42,3.37,7.2,2.31,11.04-.39,1.4-2.59.61-2.71.76-.9,1.12-.84,2.55-1.32,3.66-.18.42-.94.82-1.32,1.22-.43.4-.86.85-1.32,1.22-1.25.99-2.24,2.07-3.96,2.44.04.85-.53,2.48.68,2.46,9.64-.16,10.57-14.02,12.45-15.38,2.62-1.89,7.48,3.44,6.67-1.72-1.95-.21-6.9.54-7.77-.14-.28-.22-1.52-5.43-1.27-6.33.41-1.51,2.98-2.47,3.51-4.13.77-2.41-.18-4.9.65-7.39.97-2.92,9.49-2.83,8.84-6.4-.4-.04-.92-.05-1.32,0-3.09.35-6.13,4.93-10.35,5.07ZM260.04,515.13c.05-2.89.89-4.23-2.64-3.66.71,1.41-.08,2.93,2.64,3.66ZM265.32,515.13h-1.32c.82.09.28.17,1.32,0ZM407.88,310.16c-.2-1.13.13-2.48,0-3.66-3.93-1.07-4.2,4.61,0,3.66ZM410.52,322.36l-1.31,1.82,1.31.62c-.13-.77.12-1.66,0-2.44ZM374.88,407.77c-.39.22-1.73-.45-2.61.88-3.79,5.78,1.28,13.89,5.25,18.64-.62-6.98-3.44-12.78-2.64-19.52.31-.18,1.6.24,2.26-.34.77-.69.2-1.82.38-2.1-2.84-.43-2.41.5-2.64,2.44ZM379.76,401.63c-1.31,1.22-.77,2.29-.92,2.48,4.85-.27,6.56-3.23,9.24-6.1-2.55-.33-6.58,1.99-8.32,3.62ZM406.56,387.03c2.72-1.2,2.3-1.35,3.96-2.44-3.12-.05-4.58-.82-3.96,2.44ZM398.64,389.47c1.1-.43,1.98-.96,2.64-1.22-2.2-2.15-3.08-1.61-2.64,1.22ZM360.36,448.03c2.83-.33,7.43-.15,6.6-3.66-3.83.77-4.23-.11-6.6,3.66ZM353.76,466.33c-.2.18-1.05-.03-1.3.6l1.3.62v-1.22ZM293.04,510.25c11.78.09,14.07-.87,23.76-6.1l-23.76,6.1ZM347.16,476.09c-1.21.68-1.55,1.04-1.32,2.44.65-.78,1.43-1.28,1.32-2.44ZM432.96,188.16c-2.36-5.83.52-4.24,1.26-5.79.46-.95-.12-2.09.06-2.75-4.34,2.72-8.31,7.09-1.32,8.54ZM65.24,83.26c-4.84.7-17.81.44-23-.02-.88,4.4,1.21,12.64.09,16.34-.1.33-4.91,2.2-6.69,3.18l1.32,4.88c5.73-.43,3.67-2.64,6.52-3.15,4.14-.75,4.46,3.62,4.04-5.38,2.63-.34,3.39,1.97,5.96,2.41,2.11.36,11.3,1.35,13.24,1.33,3.08-.03,5.15-2.84,6.49-2.53,1.45.34,1.63,3.36,2.48,4.51.46.63,2.12.29,2.18.38h1.32c.73-4.18-1.65-13.17,1.32-15.86,2.35-2.12,5.25-.05,5.27-2.42-8.06-3.44-10.9-7.5-19.79-9.78-.36,1.47.89,5.88-.76,6.12ZM31.68,107.64c1.75-.09,3.54.13,5.28,0l-1.32-4.88c-3.31,1.83-3.27-.6-3.96,4.88ZM80.52,89.34c-2.97,2.69-.59,11.68-1.32,15.86h1.32c-.48-4.71.33-9.87,0-14.64v-1.22ZM339.24,293.08c.33.93-.32,2.72,0,3.66.52-.2,1.15-1.22,1.32-1.22.83-2.56-1.17-2.26-1.32-2.44ZM396.5,379.55c2.63-.84,1.74-5.07,4.29-5.87,2.56-.8,6.28,1.71,8.82,1.24,1.34-.25,1.62-4.43,4.86-3.75.71-7.13.78-14.91,0-21.96-.61-.67-15.3,3.22-17.92,3.56-4.74.62-14.86-1.6-17.12,2.56-2.2,4.05,3.93,9.87,5.13,13.6.41,1.28,2.25,10.23,2.2,10.78,2.92-.34,7.13.68,9.74-.15ZM283.04,102.72c-.5.66.77,13.11-1.88,15.9,4.25,1.98,10.49,6.64,14.57,8.06,1.6.56,2.45-.74,2.59-.74.67-1.89,4.66-.79,5.22-1.27.48-.42.18-10.13.06-12.15-.27-4.56-1.19-8.57-1.32-13.42-2.77-.25-18.67,2.88-19.24,3.62ZM297.66,105.2v-1.22c.86.41.86.81,0,1.22ZM297.01,88.12c.19,5.53-2.21,8.41,5.27,7.32-.04-2.03.05-4.07,0-6.1l-5.27-1.22ZM270.6,117.4c-1.14,2.87,3.72,1.87,2.63,4.25-2.8,6.09-6.78.41-10.16-.34-14.75-3.25-10.46,3.87-12.28,5.85-.46.5-4.78-1.81-7.08-1.14-1.99.58-1.51,4.42-4.79,3.57-.07.8.06,1.63,0,2.44,3.33,4.03.23,9.05,0,13.42-.04.85.79,1.71.34,4.5-.25,1.56-.91,2.13,1.57,1.54,3.85-.92,8.44-3.59,12.34-4.47,4.91-1.1,13.87-1.01,17.17-2.38,2.47-1.02,1.45-3.9,2.82-4.74,1.86-1.15,5.04-.1,7.14-.76,2.15-.67,2.79-4.6,6.13-5.45,2.86-.73,5.71,3.17,9.27,1.99.03-.81-.06-1.63,0-2.44-5.02.74-5.69-1.51-1.32-3.66-6.09-3.89-11.94-7.72-18.48-10.98-.24-.12-3.48-.34-5.28-1.22ZM233.64,110.08h-1.32c.5,5.68,3.23,8.6,3.96,13.42.06.39-.03.82,0,1.22h2.64c.28-10.43-3.25-8.1-5.28-14.64ZM275.88,118.62v-1.22c-5.54-2.59-10.74-6.16-16.49-8.55-1.33,3.23,8.3,7.14,11.21,8.55,1.8.88,5.04,1.1,5.28,1.22ZM216.48,99.1c.98-5.96-1.99-2.73-5.28-3.66-.9,5.8,1.63,2.85,5.28,3.66ZM300.94,57.62h-1.29v8.53h1.29v-8.53ZM199.32,89.34h2.64c.23-1.37-1.26-1.15-1.32-1.22-.49.36-.9.79-1.32,1.22ZM295.68,133.26c.06-.74,1.87-2.25,1.3-3.63-.77-.28-2.27.2-2.62-.03-4.37,2.15-3.7,4.4,1.32,3.66ZM238.92,132.04c0,.11-1.05-.19-1.29,1.81-.39,3.28.52,9.05-.03,11.61h1.32c.23-4.37,3.33-9.39,0-13.42ZM196.71,168.04c-.03,1.28,3.3-.72,1.97-1.82l-1.97,1.82ZM431.64,190.6c.98,1.46.3,7.58,1.32,0h-1.32ZM246.85,297.97c-.95,1.71.83,3.26,1.29,2.43.95-1.71-.83-3.26-1.29-2.43ZM384.19,271.24c.55-.48,7.12.09,9.54-.39,1.34-.27,13.22-3.66,14.12-4.03,3.61-1.47,3.63-6.46,4.81-6.76,2.39-.61,6.92.54,9.75.08.39-3.67-.64-8.01.06-11.54.72-3.65,5.05-5.52,5.21-9.2-9.9-3.19-10.69,4.29-20.43,3.67-7.98-.51-9.27-6.28-15.96-7.25-5.1-.74-11.16.34-16.4-.07-.53,2.19,1.68,2.81,2.32,4.6,2.12,6,2.18,3.92,3.98,7.2,6.32,11.51-5.52,13.33-6.22,17.01-.53,2.77,4.06,3.3,4.87,4.46.84,1.21.06,2.8.32,3.32,3.7,7.38,3.72-.82,4.03-1.1ZM372.24,221.09c-1.01.77-16.13,2.03-18.83,2.73-3.53.91-16.6,8.09-19.38,5.71-1.29-1.11,2.47-6.95-9.31-1.12.36,3.65,1.42,4.89,6.33,5.78,8.99,1.63,11.89-4.84,18.2,7.67,6.43-2.1,14-.88,20.44-3.04,2.75-.92,2.32-2.57,4.21-3.43,3.43-1.57,7.71-2.27,11.55-2.1,1.48-6.1-3.45-2.47-5.15-3.77-.43-.33-1.81-8.2-2.81-9.91-.59-1.01-2.61-1.94-3.93-3.39l-1.32,4.87ZM377.52,175.97c.01,1.21-.06,2.44,0,3.65,1.72-.37,2.71-1.45,3.96-2.44l-3.95-1.21ZM299.64,204.01c1.85.88,3.52-.77,2.63-1.2-1.85-.88-3.52.77-2.63,1.2ZM384.12,174.74c-.51.34-.88.81-1.32,1.22.38-.4,1.14-.8,1.32-1.22ZM297.66,105.2c.86-.41.86-.81,0-1.22v1.22Z"/>
</svg>